<svg preserveAspectRatio="none" width="100%" height="100%" overflow="visible" style="display: block;" viewBox="0 0 16 20" fill="none" xmlns="http://www.w3.org/2000/svg">
<g id="Vector">
<path d="M6.37957 11.6076C5.71236 10.9216 5.33992 9.99697 5.34326 9.0347C5.3466 8.07243 5.72546 7.15041 6.39741 6.46917C6.73115 6.12969 7.12809 5.86056 7.56529 5.67726C8.00256 5.49396 8.47138 5.40017 8.94462 5.40129C9.89415 5.39899 10.8058 5.77794 11.4791 6.45498C11.4841 6.45938 11.4888 6.46411 11.4932 6.46917C12.6688 7.66031 13.3292 9.27461 13.3292 10.9577C13.3292 12.6409 12.6688 14.2552 11.4932 15.4463C10.3153 16.6347 8.71956 17.3021 7.05588 17.3021C5.39217 17.3021 3.79635 16.6347 2.61854 15.4463L2.59945 15.4257C1.77243 14.5883 1.11707 13.5939 0.67099 12.4997C0.224903 11.4055 -0.00308074 10.2329 3.75901e-05 9.04934C-0.0033808 7.86082 0.22638 6.6834 0.676088 5.58531C1.12579 4.48722 1.78649 3.49034 2.61985 2.65239C3.44912 1.80853 4.43576 1.13963 5.52255 0.684309C6.60933 0.229048 7.77464 -0.00356945 8.95098 4.1401e-05C10.1234 -0.00324281 11.2848 0.228195 12.3684 0.680959C13.4519 1.13372 14.4361 1.79895 15.2643 2.63821L13.9397 3.97529C12.6111 2.64136 10.8141 1.89385 8.94196 1.89621C7.06984 1.89864 5.27481 2.65082 3.9495 3.98816C3.29014 4.65095 2.76737 5.43945 2.41145 6.308C2.05553 7.17649 1.87358 8.10789 1.87608 9.04803C1.87374 9.98331 2.05386 10.9099 2.40616 11.7746C2.75847 12.6393 3.27598 13.4252 3.92909 14.0873C3.93345 14.0923 3.93817 14.0971 3.94315 14.1015H3.9495C4.77575 14.9361 5.89577 15.4048 7.06355 15.4048C8.23125 15.4048 9.35124 14.9361 10.1775 14.1015C11.0021 13.2654 11.4651 12.1328 11.4651 10.952C11.4651 9.77105 11.0021 8.63842 10.1775 7.80244L10.1647 7.79081C9.84227 7.46953 9.40747 7.28991 8.95481 7.29102C8.72683 7.29057 8.50106 7.33588 8.29047 7.42435C8.07996 7.51281 7.88886 7.64258 7.72828 7.80625C7.40627 8.13232 7.224 8.57346 7.22088 9.0343C7.21783 9.49515 7.39412 9.93878 7.71178 10.2692L7.72828 10.2873C7.90366 10.4648 8.00217 10.7055 8.00217 10.9564C8.00217 11.2074 7.90366 11.4481 7.72828 11.6256C7.55276 11.803 7.31484 11.9027 7.06666 11.9027C6.81855 11.9027 6.5805 11.803 6.405 11.6256L6.38722 11.6076" fill="var(--fill-0, #CBD5E1)"/>
<path d="M9.58604 8.36409L9.60136 8.37828C10.2752 9.06248 10.6536 9.98883 10.6536 10.9546C10.6536 11.9203 10.2752 12.8467 9.60136 13.5309C8.92488 14.2124 8.00892 14.595 7.05413 14.595C6.0993 14.595 5.18338 14.2124 4.50689 13.5309L4.4878 13.5116C3.90957 12.9245 3.45145 12.2279 3.1398 11.4615C2.82816 10.6952 2.66906 9.87416 2.67159 9.04554C2.66911 8.21166 2.8303 7.38566 3.14578 6.61523C3.46125 5.84486 3.92476 5.14549 4.50944 4.55763C5.09217 3.96793 5.7844 3.50059 6.54635 3.18246C7.30828 2.86433 8.12496 2.70172 8.94923 2.70395C10.6063 2.70113 12.1968 3.36366 13.3713 4.546L13.3802 4.555C14.2136 5.39302 14.8742 6.3899 15.3239 7.48798C15.7737 8.58601 16.0034 9.76343 16 10.952C16.0033 12.1407 15.7735 13.3183 15.3237 14.4165C14.8741 15.5148 14.2134 16.5119 13.3802 17.3502C12.5515 18.1929 11.5659 18.861 10.4802 19.3159C9.39455 19.7707 8.23047 20.0032 7.05536 20C5.88007 20.0033 4.71578 19.7708 3.62991 19.316C2.54404 18.8612 1.55816 18.193 0.72932 17.3502L0.707678 17.3271L2.03099 15.9912C2.03881 15.9974 2.04604 16.0043 2.05262 16.0118C2.70815 16.6782 3.48784 17.2064 4.34657 17.566C5.2053 17.9255 6.12598 18.1092 7.05536 18.1064C7.98457 18.1091 8.90501 17.9253 9.76357 17.5658C10.6221 17.2063 11.4015 16.6781 12.0568 16.0118C12.7159 15.3489 13.2383 14.5604 13.594 13.6918C13.9497 12.8233 14.1316 11.8921 14.129 10.952C14.1318 10.013 13.9505 9.08277 13.5954 8.21514C13.2404 7.34751 12.7188 6.55967 12.0607 5.89727C12.0564 5.89221 12.0516 5.88748 12.0466 5.88308C11.2188 5.05518 10.1008 4.59211 8.93657 4.59506C7.77237 4.59795 6.65647 5.06654 5.83268 5.89858C5.4224 6.31115 5.09713 6.80201 4.87566 7.34265C4.65421 7.88322 4.54097 8.46293 4.54253 9.0481C4.54102 9.62912 4.65272 10.2047 4.87125 10.742C5.08978 11.2793 5.41087 11.7678 5.81614 12.1796L5.83523 12.1976C6.16087 12.526 6.60199 12.7103 7.06179 12.7103C7.52159 12.7103 7.96262 12.526 8.28827 12.1976C8.61255 11.8681 8.79462 11.4221 8.79462 10.9571C8.79462 10.4922 8.61255 10.0462 8.28827 9.71667L8.27041 9.69992C8.10255 9.52076 8.01035 9.28249 8.01347 9.03568C8.01652 8.78888 8.11463 8.55304 8.28697 8.37828C8.46352 8.20273 8.70164 8.10507 8.94923 8.10645C9.18916 8.10546 9.42033 8.19767 9.59493 8.36409" fill="var(--fill-0, #CBD5E1)"/>
</g>
</svg>
