<svg preserveAspectRatio="none" width="100%" height="100%" overflow="visible" style="display: block;" viewBox="0 0 22.6379 28" fill="none" xmlns="http://www.w3.org/2000/svg">
<g id="Vector">
<path d="M9.02627 16.2506C8.08225 15.2903 7.5553 13.9958 7.56002 12.6486C7.56475 11.3014 8.10079 10.0106 9.05151 9.05683C9.5237 8.58157 10.0853 8.20478 10.7039 7.94816C11.3226 7.69154 11.9859 7.56024 12.6555 7.5618C13.9989 7.55859 15.2888 8.08911 16.2415 9.03697C16.2486 9.04313 16.2552 9.04975 16.2613 9.05683C17.9248 10.7244 18.859 12.9845 18.859 15.3408C18.859 17.6972 17.9248 19.9572 16.2613 21.6248C14.5948 23.2886 12.337 24.223 9.98316 24.223C7.62922 24.223 5.37134 23.2886 3.70489 21.6248L3.67788 21.596C2.50776 20.4236 1.58052 19.0315 0.949365 17.4996C0.318209 15.9677 -0.00435885 14.3261 5.31852e-05 12.6691C-0.00478339 11.0052 0.320299 9.35676 0.956576 7.81944C1.59285 6.28211 2.52765 4.88648 3.70675 3.71335C4.88006 2.53195 6.27602 1.59549 7.81369 0.958032C9.35135 0.320668 11.0001 -0.00499723 12.6645 5.79614e-05C14.3233 -0.00453994 15.9666 0.319473 17.4997 0.953342C19.0327 1.58721 20.4252 2.51853 21.597 3.69349L19.7229 5.5654C17.843 3.6979 15.3006 2.65139 12.6517 2.6547C10.0029 2.6581 7.46318 3.71115 5.58803 5.58342C4.65513 6.51133 3.91547 7.61523 3.41189 8.8312C2.90831 10.0471 2.65088 11.351 2.6544 12.6672C2.6511 13.9766 2.90595 15.2738 3.40441 16.4844C3.90288 17.695 4.63508 18.7953 5.55916 19.7222C5.56532 19.7293 5.572 19.7359 5.57905 19.7421H5.58803C6.75707 20.9105 8.34175 21.5668 9.994 21.5668C11.6462 21.5668 13.2308 20.9105 14.3998 19.7421C15.5665 18.5716 16.2216 16.9859 16.2216 15.3327C16.2216 13.6795 15.5665 12.0938 14.3998 10.9234L14.3818 10.9071C13.9255 10.4573 13.3104 10.2059 12.6699 10.2074C12.3473 10.2068 12.0279 10.2702 11.7299 10.3941C11.4321 10.5179 11.1617 10.6996 10.9345 10.9287C10.4789 11.3853 10.221 12.0028 10.2166 12.648C10.2123 13.2932 10.4617 13.9143 10.9112 14.3769L10.9345 14.4022C11.1827 14.6507 11.322 14.9877 11.322 15.339C11.322 15.6904 11.1827 16.0274 10.9345 16.2759C10.6862 16.5242 10.3496 16.6637 9.99841 16.6637C9.64737 16.6637 9.31056 16.5242 9.06225 16.2759L9.03709 16.2506" fill="url(#paint0_linear_0_25)"/>
<path d="M13.563 11.7097L13.5847 11.7296C14.5381 12.6875 15.0734 13.9844 15.0734 15.3364C15.0734 16.6884 14.5381 17.9853 13.5847 18.9432C12.6276 19.8973 11.3316 20.4331 9.98068 20.4331C8.62972 20.4331 7.33381 19.8973 6.37667 18.9432L6.34966 18.9162C5.53153 18.0943 4.88336 17.119 4.44241 16.0461C4.00148 14.9732 3.77638 13.8238 3.77995 12.6637C3.77645 11.4963 4.00451 10.3399 4.45087 9.26132C4.89722 8.1828 5.55303 7.20368 6.38028 6.38068C7.20476 5.55511 8.18418 4.90082 9.26223 4.45544C10.3403 4.01006 11.4958 3.7824 12.662 3.78553C15.0066 3.78158 17.2569 4.70912 18.9187 6.36441L18.9313 6.377C20.1104 7.55022 21.0451 8.94586 21.6814 10.4832C22.3177 12.0204 22.6427 13.6688 22.6379 15.3328C22.6426 16.9969 22.3174 18.6456 21.6811 20.1831C21.0449 21.7207 20.1102 23.1167 18.9313 24.2903C17.7588 25.4701 16.3642 26.4054 14.8281 27.0422C13.2921 27.679 11.6451 28.0045 9.98243 27.9999C8.31954 28.0046 6.67222 27.6792 5.13586 27.0424C3.59949 26.4057 2.20459 25.4702 1.03189 24.2903L1.00127 24.2579L2.87359 22.3877C2.88465 22.3964 2.89488 22.4061 2.9042 22.4166C3.83169 23.3495 4.93485 24.089 6.14983 24.5923C7.36482 25.0957 8.66746 25.3528 9.98243 25.3489C11.2971 25.3527 12.5994 25.0955 13.8142 24.5921C15.0288 24.0888 16.1317 23.3493 17.0589 22.4166C17.9913 21.4885 18.7305 20.3845 19.2338 19.1686C19.7371 17.9526 19.9943 16.6489 19.9907 15.3328C19.9947 14.0182 19.7381 12.7159 19.2357 11.5012C18.7334 10.2865 17.9954 9.18353 17.0644 8.25618C17.0582 8.2491 17.0515 8.24248 17.0445 8.23632C15.8732 7.07726 14.2913 6.42895 12.6441 6.43309C10.9969 6.43713 9.41805 7.09316 8.25249 8.25802C7.672 8.83561 7.21178 9.52281 6.89843 10.2797C6.5851 11.0365 6.42489 11.8481 6.42709 12.6673C6.42496 13.4808 6.583 14.2866 6.89219 15.0388C7.20139 15.7911 7.65568 16.475 8.22909 17.0515L8.2561 17.0767C8.71684 17.5364 9.34097 17.7945 9.99152 17.7945C10.6421 17.7945 11.2661 17.5364 11.7268 17.0767C12.1856 16.6154 12.4433 15.991 12.4433 15.34C12.4433 14.689 12.1856 14.0646 11.7268 13.6033L11.7016 13.5799C11.4641 13.3291 11.3336 12.9955 11.338 12.65C11.3423 12.3044 11.4812 11.9743 11.725 11.7296C11.9748 11.4838 12.3117 11.3471 12.662 11.349C13.0015 11.3476 13.3285 11.4767 13.5756 11.7097" fill="url(#paint1_linear_0_25)"/>
</g>
<defs>
<linearGradient id="paint0_linear_0_25" x1="-0.00035254" y1="27.9998" x2="27.3788" y2="5.86379" gradientUnits="userSpaceOnUse">
<stop stop-color="#3730A3"/>
<stop offset="1" stop-color="#4F46E5"/>
</linearGradient>
<linearGradient id="paint1_linear_0_25" x1="-0.00035254" y1="27.9998" x2="27.3788" y2="5.86379" gradientUnits="userSpaceOnUse">
<stop stop-color="#3730A3"/>
<stop offset="1" stop-color="#4F46E5"/>
</linearGradient>
</defs>
</svg>
