<svg preserveAspectRatio="none" width="100%" height="100%" overflow="visible" style="display: block;" viewBox="0 0 73.1379 20.988" fill="none" xmlns="http://www.w3.org/2000/svg">
<g id="Vector">
<path d="M7.26504 20.9758C5.98106 20.9758 4.82304 20.7512 3.79098 20.302C2.76705 19.8528 1.9219 19.2118 1.25553 18.3788C0.597293 17.5376 0.178782 16.5413 0 15.3898L3.04741 14.9243C3.30746 15.9696 3.83974 16.7781 4.64426 17.3498C5.4569 17.9214 6.39144 18.2073 7.44788 18.2073C8.07362 18.2073 8.66278 18.1093 9.21538 17.9133C9.76798 17.7173 10.2149 17.4314 10.5562 17.0558C10.9057 16.6801 11.0804 16.2187 11.0804 15.6715C11.0804 15.4265 11.0398 15.2019 10.9585 14.9978C10.8772 14.7854 10.7553 14.5976 10.5928 14.4343C10.4384 14.2709 10.2352 14.1239 9.98333 13.9933C9.73954 13.8544 9.45511 13.736 9.13005 13.638L4.5955 12.2905C4.20543 12.1762 3.78286 12.0251 3.32778 11.8373C2.88082 11.6413 2.45418 11.3758 2.04786 11.041C1.64967 10.698 1.32055 10.2652 1.0605 9.7425C0.80858 9.21167 0.682621 8.55834 0.682621 7.7825C0.682621 6.64734 0.967046 5.69592 1.5359 4.92825C2.11287 4.15242 2.88489 3.57259 3.85193 3.18876C4.8271 2.80492 5.90792 2.61709 7.09438 2.62525C8.29709 2.63342 9.36978 2.84167 10.3124 3.25C11.2551 3.65017 12.0434 4.23409 12.6772 5.00175C13.3111 5.76942 13.7581 6.69634 14.0181 7.7825L10.861 8.33375C10.731 7.71309 10.479 7.18634 10.1052 6.7535C9.73954 6.3125 9.28852 5.97767 8.75217 5.749C8.22395 5.52034 7.65917 5.39784 7.05781 5.38151C6.47271 5.37334 5.92824 5.46317 5.4244 5.651C4.92868 5.83067 4.52643 6.09201 4.21762 6.435C3.91694 6.77801 3.7666 7.17817 3.7666 7.6355C3.7666 8.06834 3.89663 8.42359 4.15667 8.70125C4.41672 8.97075 4.73771 9.18717 5.11966 9.35051C5.50972 9.50567 5.90386 9.63634 6.30205 9.7425L9.44698 10.6245C9.87768 10.7388 10.3612 10.894 10.8976 11.09C11.4339 11.286 11.9499 11.5596 12.4456 11.9108C12.9414 12.2619 13.3477 12.7233 13.6646 13.295C13.9897 13.8667 14.1522 14.5935 14.1522 15.4755C14.1522 16.3902 13.9612 17.1946 13.5793 17.8888C13.2055 18.5748 12.6976 19.1464 12.0556 19.6038C11.4136 20.0611 10.6781 20.4041 9.84924 20.6328C9.02847 20.8614 8.16707 20.9758 7.26504 20.9758Z" fill="white"/>
<path d="M20.7523 20.988C19.7771 20.988 18.9726 20.8247 18.3388 20.498C17.7049 20.1713 17.2011 19.7548 16.8272 19.2485C16.4534 18.7422 16.1771 18.2032 15.9984 17.6315C15.8196 17.0598 15.7017 16.5208 15.6449 16.0145C15.5961 15.5 15.5717 15.0835 15.5717 14.765V7.37825H18.546V13.7483C18.546 14.1566 18.5744 14.618 18.6313 15.1325C18.6882 15.6388 18.8182 16.1288 19.0214 16.6025C19.2327 17.068 19.5415 17.4518 19.9478 17.754C20.3622 18.0562 20.9189 18.2073 21.6178 18.2073C21.9916 18.2073 22.3614 18.146 22.727 18.0235C23.0927 17.901 23.4219 17.6928 23.7144 17.3988C24.0151 17.0966 24.2548 16.6842 24.4336 16.1615C24.6124 15.6388 24.7018 14.9773 24.7018 14.177L26.4449 14.9243C26.4449 16.0513 26.2255 17.0721 25.7866 17.9868C25.3559 18.9014 24.718 19.6323 23.8729 20.1795C23.0277 20.7185 21.9875 20.988 20.7523 20.988ZM25.0553 20.6083V16.5045H24.7018V7.37825H27.6517V20.6083H25.0553Z" fill="white"/>
<path d="M30.1012 20.6083V7.37825H32.6976V10.6L32.3807 10.1835C32.5432 9.7425 32.7586 9.34234 33.0267 8.983C33.303 8.6155 33.6321 8.31334 34.0141 8.07651C34.3391 7.856 34.6967 7.6845 35.0868 7.56201C35.485 7.43134 35.8913 7.35375 36.3057 7.32925C36.7202 7.29659 37.1225 7.31292 37.5125 7.37825V10.1345C37.1225 10.0202 36.6714 9.98342 36.1595 10.0243C35.6556 10.0651 35.2005 10.208 34.7942 10.453C34.3879 10.6735 34.0547 10.9553 33.7947 11.2983C33.5428 11.6413 33.3558 12.0333 33.234 12.4743C33.1121 12.9071 33.0511 13.3767 33.0511 13.883V20.6083H30.1012Z" fill="white"/>
<path d="M44.6105 20.9758C43.2778 20.9758 42.1076 20.6858 41.0999 20.106C40.0922 19.5262 39.304 18.7218 38.7351 17.6928C38.1744 16.6638 37.894 15.4796 37.894 14.1403C37.894 12.6948 38.1703 11.4412 38.7229 10.3795C39.2755 9.30967 40.0435 8.48075 41.0268 7.89275C42.0101 7.30475 43.1478 7.01076 44.4399 7.01076C45.8051 7.01076 46.9631 7.33334 47.9139 7.9785C48.8728 8.6155 49.5839 9.51792 50.0471 10.6858C50.5103 11.8536 50.685 13.2297 50.5713 14.814H47.6579V13.736C47.6498 12.2987 47.3979 11.2493 46.9022 10.5878C46.4065 9.92625 45.6263 9.5955 44.5618 9.5955C43.359 9.5955 42.4651 9.97117 41.88 10.7225C41.2949 11.4657 41.0024 12.5559 41.0024 13.9933C41.0024 15.3326 41.2949 16.3698 41.88 17.1048C42.4651 17.8398 43.3184 18.2073 44.4399 18.2073C45.1631 18.2073 45.7848 18.048 46.3049 17.7295C46.8331 17.4028 47.2394 16.9333 47.5238 16.3208L50.425 17.2028C49.9211 18.3951 49.141 19.322 48.0846 19.9835C47.0363 20.645 45.8782 20.9758 44.6105 20.9758ZM40.076 14.814V12.5845H49.1329V14.814H40.076Z" fill="white"/>
<path d="M57.594 20.9758C56.3832 20.9758 55.3268 20.6695 54.4247 20.057C53.5227 19.4445 52.8238 18.6115 52.3281 17.558C51.8324 16.5045 51.5845 15.3163 51.5845 13.9933C51.5845 12.6539 51.8324 11.4616 52.3281 10.4163C52.8319 9.36275 53.543 8.53384 54.4613 7.9295C55.3796 7.317 56.4604 7.01076 57.7037 7.01076C58.9552 7.01076 60.0035 7.317 60.8487 7.9295C61.7019 8.53384 62.348 9.36275 62.7868 10.4163C63.2257 11.4698 63.4451 12.6621 63.4451 13.9933C63.4451 15.3081 63.2257 16.4963 62.7868 17.558C62.348 18.6115 61.6938 19.4445 60.8243 20.057C59.9548 20.6695 58.878 20.9758 57.594 20.9758ZM58.045 18.3298C58.8333 18.3298 59.4672 18.1501 59.9466 17.7908C60.4342 17.4233 60.7877 16.9128 61.0071 16.2595C61.2347 15.6062 61.3484 14.8508 61.3484 13.9933C61.3484 13.1276 61.2347 12.3722 61.0071 11.727C60.7877 11.0737 60.4423 10.5673 59.971 10.208C59.4997 9.8405 58.8902 9.65675 58.1426 9.65675C57.3543 9.65675 56.7042 9.85275 56.1922 10.2448C55.6803 10.6286 55.3024 11.1513 55.0586 11.8128C54.8148 12.4661 54.6929 13.1929 54.6929 13.9933C54.6929 14.8018 54.8107 15.5368 55.0464 16.1983C55.2902 16.8516 55.6599 17.3702 56.1557 17.754C56.6514 18.1378 57.2812 18.3298 58.045 18.3298ZM61.3484 20.6083V11.3228H60.9828V2.96825H63.9448V20.6083H61.3484Z" fill="white"/>
<path d="M70.5263 5.25C71.9681 5.25 73.1379 4.0747 73.1379 2.625C73.1379 1.17524 71.9681 0 70.5263 0C69.0836 0 67.9138 1.17524 67.9138 2.625C67.9138 4.0747 69.0836 5.25 70.5263 5.25Z" fill="var(--fill-0, white)"/>
</g>
</svg>
