<svg width="92" height="27" viewBox="0 0 92 27" fill="none" xmlns="http://www.w3.org/2000/svg">
<g clip-path="url(#clip0_63_9458)">
<path d="M91.7828 14.5702C91.7828 19.4645 81.2667 23.7204 66.6361 25.8359V23.733C74.8139 21.7677 80.3595 18.5883 80.3595 14.5702C80.3595 8.68706 68.3995 4.53129 53.7178 3.44228V2.07788C74.6478 3.12934 91.7828 8.32406 91.7828 14.5702ZM11.615 14.5702C11.615 18.5758 17.1478 21.7552 25.3 23.7204V25.8234C10.695 23.7079 0.204468 19.4645 0.204468 14.5702C0.204468 8.36161 17.0839 3.20445 37.8095 2.10292V3.47983C23.3322 4.61891 11.615 8.73713 11.615 14.5702Z" fill="#94A3B8" stroke="#94A3B8" stroke-width="0.327"/>
<path d="M27.7789 20.7914H21.6072V8.48679H27.5617C29.095 8.48679 30.2961 8.82476 31.1395 9.48818C31.9956 10.1641 32.4428 11.0654 32.4428 12.1919C32.4428 12.63 32.315 13.0932 32.085 13.5563C31.9317 13.8693 31.6761 14.1572 31.3567 14.42C31.7784 14.6704 32.1234 14.9583 32.3789 15.2837C32.775 15.7969 32.9795 16.3978 32.9795 17.0737C32.9795 18.2754 32.5195 19.2142 31.5995 19.8526C30.6922 20.491 29.4145 20.7914 27.7789 20.7914ZM24.61 18.2629H27.8811C28.5839 18.2629 29.1206 18.1627 29.4656 17.9499C29.7339 17.7747 29.8617 17.4868 29.8617 17.0487C29.8617 16.6106 29.7211 16.3102 29.44 16.0974C29.1078 15.8595 28.5839 15.7469 27.8939 15.7469H24.6228V18.2629H24.61ZM24.61 13.331H27.5617C28.2261 13.331 28.7117 13.2058 28.9417 12.993C29.1845 12.7552 29.2995 12.5049 29.2995 12.1919C29.3024 12.0362 29.2708 11.8816 29.2068 11.739C29.1428 11.5964 29.048 11.469 28.9289 11.3658C28.6989 11.153 28.2133 11.0278 27.5489 11.0278H24.5972V13.331H24.61ZM45.1056 20.6912H34.7172V8.38665H45.1056V10.9152H37.72V13.1558H44.3389V15.6843H37.72V18.1627H45.1056V20.6912ZM52.1333 21.0668C51.3156 21.0668 50.485 20.9416 49.6545 20.6912C48.7856 20.4409 48.0572 20.0153 47.495 19.4395C47.1883 19.1266 46.9456 18.751 46.7539 18.3255C46.575 17.8999 46.4856 17.4117 46.4856 16.8734V16.4604H49.5906V16.8734C49.5906 17.3992 49.8078 17.7747 50.2678 18.0626C50.7661 18.3755 51.3922 18.5382 52.1206 18.5382C52.8617 18.5382 53.5006 18.4131 54.0117 18.1627C54.4333 17.9499 54.625 17.6495 54.625 17.1864C54.625 16.9861 54.5739 16.8359 54.4461 16.7232C54.28 16.573 54.0372 16.4353 53.7306 16.3352C53.1045 16.1099 52.325 15.9346 51.4178 15.8095C50.4339 15.6843 49.5267 15.4214 48.7472 15.0459C48.1978 14.783 47.7378 14.4075 47.38 13.9444C47.0095 13.4812 46.805 12.8554 46.805 12.1043C46.805 11.6161 46.9072 11.1655 47.0989 10.765C47.2778 10.3769 47.5333 10.0264 47.84 9.73853C48.3767 9.20028 49.0539 8.79972 49.8717 8.56189C50.6511 8.32406 51.4178 8.2114 52.1333 8.2114C52.5167 8.2114 52.9383 8.24896 53.36 8.32406C53.7689 8.39917 54.1906 8.4993 54.5867 8.62448C55.3534 8.91238 56.0178 9.35049 56.5672 9.91377C57.1422 10.5146 57.4489 11.3157 57.4489 12.2921V12.7051H54.3439V12.3046C54.3439 11.879 54.165 11.5285 53.7561 11.2156C53.3472 10.9026 52.7978 10.7399 52.1461 10.7399C51.4689 10.7399 50.9195 10.8901 50.4978 11.1655C50.1272 11.4159 49.9611 11.7163 49.9611 12.0918C49.9611 12.2796 50.025 12.4172 50.14 12.5424C50.3061 12.6926 50.5361 12.8178 50.83 12.9054C51.4689 13.1182 52.2611 13.2935 53.1684 13.4061C54.1522 13.5188 55.0595 13.7691 55.8389 14.1572C56.3884 14.42 56.8483 14.783 57.1933 15.2337C57.5639 15.7093 57.7428 16.3352 57.7428 17.0862C57.7428 17.612 57.6534 18.0876 57.4745 18.4882C57.2956 18.9013 57.04 19.2643 56.7206 19.5647C56.1711 20.1029 55.4556 20.5035 54.5995 20.7413C53.7689 20.9541 52.9383 21.0668 52.1333 21.0668ZM65.8439 20.879H62.8156V11.0904H58.1517V8.56189H70.5078V11.0904H65.8439V20.879ZM27.9322 25.6732C27.9322 26.249 28.4689 26.4743 29.1333 26.4743C29.8617 26.4743 30.1428 26.1989 30.1428 25.911C30.1428 25.6231 29.9384 25.5104 29.7467 25.4478C29.4145 25.3477 28.98 25.2851 28.3284 25.1349C27.5234 24.9597 27.2806 24.5716 27.2806 24.1961C27.2806 23.4451 28.1622 23.0946 29.0183 23.0946C30.0022 23.0946 30.8456 23.5077 30.8456 24.2837H30.015C29.9767 23.8081 29.5678 23.6328 28.9928 23.6328C28.6095 23.6328 28.1239 23.7455 28.1239 24.121C28.1239 24.3839 28.3539 24.5216 28.6861 24.5967C28.7628 24.6092 29.8106 24.822 30.0534 24.8846C30.6795 25.0348 30.9733 25.4478 30.9733 25.8359C30.9733 26.6745 30.0278 27 29.0822 27C27.9961 27 27.1272 26.5869 27.1017 25.6732H27.9322ZM31.9572 23.1947H32.7878V26.9124H31.9572V23.1947ZM34.0272 23.1947H34.9089L37.0811 25.936H37.0939V23.1947H37.8861V26.9124H37.0045L34.845 24.1711H34.8195V26.9124H34.0272V23.1947ZM42.3328 24.3713C42.1922 23.9458 41.8472 23.6328 41.1445 23.6328C40.1222 23.6328 39.7006 24.3338 39.7006 25.0473C39.7006 25.7608 40.1222 26.4618 41.1445 26.4618C41.8856 26.4618 42.2945 26.0236 42.3584 25.4854H43.1633C43.0995 26.3741 42.2945 26.9875 41.1445 26.9875C39.7261 26.9875 38.87 26.0987 38.87 25.0348C38.87 23.9708 39.7261 23.0821 41.1445 23.0821C42.2178 23.0821 43.0611 23.5577 43.1633 24.3588H42.3328V24.3713ZM44.1856 23.1947H47.5972V23.758H45.0161V24.7344H47.4056V25.2601H45.0161V26.3491H47.6484V26.9124H44.1856V23.1947ZM50.6 23.8707C51.2389 23.8707 51.8395 23.7079 51.9545 23.2698H52.5678V26.9249H51.7372V24.3463H50.5872V23.8707H50.6ZM53.4367 25.8359C53.4367 25.3727 53.7689 25.0473 54.2928 24.9471V24.9346C53.8711 24.8095 53.6284 24.5341 53.6284 24.1836C53.6284 23.5577 54.1522 23.1822 55.0722 23.1822C55.9922 23.1822 56.5161 23.5577 56.5161 24.1836C56.5161 24.5341 56.2734 24.8095 55.8645 24.9346V24.9471C56.3884 25.0473 56.7206 25.3853 56.7206 25.8359C56.7206 26.5494 56.0178 26.9875 55.0722 26.9875C54.1267 26.9875 53.4367 26.5494 53.4367 25.8359ZM55.9539 25.8359C55.9539 25.4353 55.5706 25.1975 55.0722 25.1975C54.5739 25.1975 54.1906 25.4353 54.1906 25.8359C54.1906 26.2615 54.5739 26.5118 55.0722 26.5118C55.5706 26.5118 55.9539 26.2615 55.9539 25.8359ZM54.3439 24.2211C54.3439 24.5591 54.6506 24.7594 55.0722 24.7594C55.4939 24.7594 55.8006 24.5716 55.8006 24.2211C55.8006 23.8581 55.4811 23.6579 55.0722 23.6579C54.6633 23.6579 54.3439 23.8581 54.3439 24.2211ZM58.2539 25.9861C58.2922 26.2865 58.535 26.4868 58.9311 26.4868C59.7489 26.4868 59.8511 25.7107 59.8895 25.235L59.8767 25.2225C59.6722 25.5104 59.3017 25.6606 58.8672 25.6606C57.9856 25.6606 57.3978 25.1725 57.3978 24.4339C57.3978 23.7204 57.9856 23.1822 58.995 23.1822C60.3111 23.1822 60.6433 24.0209 60.6433 25.0974C60.6433 25.9736 60.2089 26.9875 58.8928 26.9875C58.1517 26.9875 57.5256 26.5869 57.4872 25.9861H58.2539ZM58.1645 24.4339C58.1645 24.8345 58.42 25.1975 58.9695 25.1975C59.5317 25.1975 59.8128 24.8345 59.8128 24.4339C59.8128 24.0459 59.5317 23.6829 58.9695 23.6829C58.4328 23.6829 58.1645 24.0334 58.1645 24.4339ZM62.215 25.9861C62.2533 26.2865 62.4961 26.4868 62.8922 26.4868C63.7228 26.4868 63.8122 25.7107 63.8506 25.235L63.8378 25.2225C63.6334 25.5104 63.2628 25.6606 62.8284 25.6606C61.9467 25.6606 61.3589 25.1725 61.3589 24.4339C61.3589 23.7204 61.9467 23.1822 62.9561 23.1822C64.2722 23.1822 64.6045 24.0209 64.6045 25.0974C64.6045 25.9736 64.17 26.9875 62.8539 26.9875C62.1128 26.9875 61.4867 26.5869 61.4483 25.9861H62.215ZM62.1256 24.4339C62.1256 24.8345 62.3811 25.1975 62.9306 25.1975C63.4928 25.1975 63.7739 24.8345 63.7739 24.4339C63.7739 24.0459 63.4928 23.6829 62.9306 23.6829C62.3811 23.6829 62.1256 24.0334 62.1256 24.4339ZM45.1311 5.31989C44.2622 2.96662 43.6234 1.18915 43.1761 0H42.5117C41.5534 2.5911 40.9145 4.38108 40.5695 5.31989H41.5661L41.9878 4.13074H43.7128L44.1345 5.31989H45.1311ZM42.205 3.49235L42.8439 1.66481L43.4828 3.49235H42.205ZM50.3317 0V5.31989H49.3989V3.29207L49.4117 2.26565C49.1306 3.10431 48.7983 4.13074 48.415 5.33241H47.3289C47.1117 4.70654 46.7667 3.66759 46.2683 2.21558L46.2939 3.29207V5.33241H45.3739V0H46.4472C46.69 0.776078 47.1628 2.22809 47.8272 4.30598L47.8656 4.43115L47.9039 4.30598C48.2106 3.31711 48.6706 1.87761 49.2583 0H50.3317Z" fill="#94A3B8"/>
</g>
<defs>
<clipPath id="clip0_63_9458">
<rect width="92" height="27" fill="white"/>
</clipPath>
</defs>
</svg>
