<svg width="108" height="11" viewBox="0 0 108 11" fill="none" xmlns="http://www.w3.org/2000/svg">
<g clip-path="url(#clip0_63_9451)">
<path d="M22.9355 4.4984V0.00897217H20.8754V11H22.9355V6.43011H33.9281V11H35.9882V0.00897217H33.9281V4.4984H22.9355ZM14.873 1.96751V0.00897217H2.78813C0.932336 0.00897217 0 0.965883 0 2.52198V8.48702C0 10.0431 0.932336 11 2.78813 11H14.873V9.04149H2.10441V1.96751H14.873Z" fill="#94A3B8"/>
<path d="M55.9756 0.00897217V9.04149H45.1428V0.00897217H43.0828V8.48702C43.0828 10.0431 44.0151 11 45.8709 11H55.2386C57.0944 11 58.0268 10.0431 58.0268 8.48702V0.00897217H55.9756Z" fill="#94A3B8"/>
<path d="M100.781 9.13092H89.3266V6.3854H100.781V9.13092ZM89.3266 1.87808H100.781V4.54312H89.3266V1.87808ZM99.9286 11C101.953 11 102.894 10.1504 102.894 8.69271V7.40491C102.894 6.99353 102.752 6.80572 102.459 6.55531L101.145 5.42848L102.459 4.30165C102.752 4.05125 102.894 3.86344 102.894 3.45206V2.31629C102.894 0.858566 101.962 0.00897217 99.9286 0.00897217H87.2666V11H99.9286ZM78.6447 9.13092H67.1814V6.3854H78.6447V9.13092ZM67.1814 1.87808H78.6447V4.54312H67.1814V1.87808ZM77.7834 11C79.8079 11 80.7492 10.1504 80.7492 8.69271V7.40491C80.7492 6.99353 80.6071 6.80572 80.3141 6.55531L79.0088 5.42848L80.3141 4.29271C80.6071 4.04231 80.7492 3.8545 80.7492 3.44312V2.31629C80.7492 0.858566 79.8168 0.00897217 77.7834 0.00897217H65.1303V11H77.7834Z" fill="#94A3B8"/>
<path d="M107.103 0.11626C107.281 0.187805 107.441 0.295122 107.574 0.438211C107.707 0.572358 107.814 0.733333 107.885 0.912195C107.956 1.09106 108 1.2878 108 1.50244C108 1.71707 107.964 1.91382 107.885 2.09268C107.805 2.27154 107.707 2.43252 107.574 2.56667C107.441 2.70081 107.281 2.80813 107.103 2.87967C106.926 2.95122 106.721 2.99593 106.517 2.99593C106.304 2.99593 106.109 2.96016 105.931 2.87967C105.754 2.79919 105.594 2.70081 105.461 2.56667C105.327 2.43252 105.221 2.27154 105.15 2.09268C105.079 1.91382 105.034 1.71707 105.034 1.50244C105.034 1.29675 105.07 1.1 105.15 0.912195C105.23 0.733333 105.327 0.572358 105.461 0.438211C105.594 0.304065 105.754 0.196748 105.931 0.11626C106.109 0.0357724 106.313 0 106.517 0C106.721 0 106.917 0.0357724 107.103 0.11626ZM106.011 0.313008C105.86 0.384553 105.727 0.473984 105.611 0.590244C105.496 0.706504 105.416 0.84065 105.345 0.992683C105.283 1.14472 105.247 1.31463 105.247 1.4935C105.247 1.67236 105.274 1.84228 105.345 1.99431C105.407 2.14634 105.496 2.28943 105.611 2.39675C105.727 2.51301 105.851 2.60244 106.011 2.67398C106.162 2.73659 106.331 2.77236 106.517 2.77236C106.695 2.77236 106.863 2.73659 107.014 2.67398C107.165 2.60244 107.299 2.51301 107.414 2.39675C107.529 2.28049 107.609 2.14634 107.68 1.99431C107.743 1.84228 107.778 1.67236 107.778 1.4935C107.778 1.31463 107.743 1.14472 107.68 0.992683C107.618 0.84065 107.529 0.697561 107.414 0.590244C107.299 0.473984 107.165 0.384553 107.014 0.313008C106.863 0.250407 106.695 0.214634 106.517 0.214634C106.331 0.214634 106.162 0.250407 106.011 0.313008ZM105.976 2.36098V0.634959H106.633C106.828 0.634959 106.97 0.679675 107.059 0.760163C107.148 0.84065 107.192 0.956911 107.192 1.11789C107.192 1.18943 107.183 1.26098 107.156 1.31463C107.13 1.36829 107.103 1.42195 107.059 1.45772C107.023 1.4935 106.97 1.52927 106.917 1.54715C106.863 1.57398 106.81 1.59187 106.748 1.60081L107.263 2.36992H107.014L106.535 1.60081H106.18V2.36992H105.976V2.36098ZM106.65 1.40407C106.713 1.39512 106.766 1.38618 106.819 1.36829C106.872 1.35041 106.908 1.32358 106.934 1.27886C106.961 1.23415 106.979 1.18049 106.979 1.10894C106.979 1.04634 106.97 1.00163 106.943 0.95691C106.917 0.921138 106.89 0.885366 106.855 0.86748C106.819 0.84065 106.775 0.831707 106.721 0.822764C106.677 0.813821 106.624 0.813821 106.57 0.813821H106.18V1.41301H106.455C106.526 1.41301 106.588 1.41301 106.65 1.40407Z" fill="#94A3B8"/>
</g>
<defs>
<clipPath id="clip0_63_9451">
<rect width="108" height="11" fill="white"/>
</clipPath>
</defs>
</svg>
