<svg width="35" height="40" viewBox="0 0 35 40" fill="none" xmlns="http://www.w3.org/2000/svg">
<g clip-path="url(#clip0_63_9425)">
<path d="M15.8198 24.4424C15.9307 24.337 16.0605 24.2538 16.2024 24.197L17.1115 25.1446C17.0184 25.2694 16.9093 25.371 16.7833 25.4362C16.6577 25.509 16.5136 25.5384 16.3547 25.5384C16.2679 25.5389 16.1817 25.5239 16.1001 25.494C16.0186 25.4664 15.9429 25.4239 15.8768 25.3686C15.8123 25.3107 15.7584 25.2419 15.7173 25.1654C15.6748 25.08 15.653 24.9858 15.6535 24.8904C15.6535 24.6978 15.71 24.5452 15.8204 24.4424H15.8198ZM16.2784 22.0844C16.3714 21.9952 16.4891 21.9507 16.6314 21.951C16.7788 21.951 16.899 21.9952 16.9885 22.088C17.0737 22.1787 17.1208 22.2988 17.1199 22.4234C17.1203 22.499 17.1049 22.5738 17.0747 22.6431C17.0445 22.7123 17.0001 22.7744 16.9444 22.8254C16.8204 22.9401 16.6771 23.0317 16.5212 23.096C16.3954 22.992 16.2985 22.8836 16.2353 22.7724C16.1705 22.6676 16.136 22.5467 16.1356 22.4234C16.1341 22.3597 16.1461 22.2965 16.1709 22.2378C16.1957 22.1792 16.2327 22.1266 16.2793 22.0834L16.2784 22.0844ZM-0.000345952 0V12.96C0.502052 11.9262 1.14799 11.021 1.95342 10.261C2.88286 9.401 3.96361 8.7392 5.20944 8.2734C6.4471 7.8094 7.793 7.58 9.23441 7.58C10.568 7.58 11.8786 7.81607 13.1663 8.2882C14.1466 8.6482 14.9853 9.13487 15.6824 9.7482V7.935H28.2779V11.895H20.2487V15.8564H27.6573V19.6764H20.2487V27.134H15.6832V26.4036C15.8885 26.4534 16.0989 26.4792 16.31 26.4804C16.6689 26.4804 16.9701 26.4226 17.21 26.3088C17.4376 26.204 17.6434 26.057 17.8166 25.8756L18.3041 26.38H19.8099L18.5286 25.1038L19.6412 23.6072H18.3174L17.8049 24.4028L17.1546 23.7388C17.2922 23.6664 17.4254 23.5856 17.5533 23.497C17.6764 23.4127 17.7889 23.3137 17.8882 23.2022C17.9801 23.0935 18.0536 22.9705 18.1059 22.838C18.1631 22.6951 18.1913 22.5422 18.1889 22.3882C18.1889 22.1606 18.141 21.963 18.0513 21.7962C17.964 21.6353 17.8426 21.4956 17.6956 21.387C17.5425 21.2785 17.3714 21.1981 17.1902 21.1494C17.0029 21.1002 16.8103 21.0746 16.6167 21.0732C16.424 21.0754 16.2322 21.1005 16.0455 21.1482C15.9184 21.18 15.7963 21.229 15.6824 21.294V10.978L13.2049 13.4628C12.7789 12.875 12.2149 12.44 11.5273 12.1496C10.8341 11.8696 10.119 11.725 9.3941 11.725C8.59239 11.725 7.85939 11.8717 7.19511 12.165C6.54372 12.4484 5.9571 12.8627 5.47141 13.3822C4.99174 13.9002 4.62072 14.512 4.35377 15.2122C4.08662 15.923 3.95305 16.6914 3.95305 17.5296C3.95305 18.3824 4.08742 19.1696 4.35417 19.8834C4.62092 20.5972 4.98835 21.2034 5.46004 21.7152C5.93568 22.2254 6.51307 22.6294 7.15464 22.901C7.81454 23.189 8.53285 23.335 9.31435 23.335C10.2208 23.335 11.0111 23.1561 11.6852 22.7982C12.3593 22.4403 12.9013 21.9763 13.3112 21.4062L15.5391 23.5096H15.5403C15.3983 23.5748 15.2616 23.6511 15.1314 23.7378C15.0014 23.8225 14.8842 23.9256 14.7835 24.0438C14.6837 24.1633 14.6049 24.299 14.5505 24.445C14.49 24.6036 14.4598 24.7722 14.4615 24.942C14.4615 25.2056 14.5144 25.4312 14.6192 25.624C14.6702 25.717 14.7303 25.8046 14.7987 25.8856C14.3533 26.1931 13.8823 26.4613 13.391 26.6874C12.1667 27.2474 10.7543 27.529 9.15367 27.5322C7.69751 27.5322 6.35027 27.2922 5.11195 26.8122C3.87855 26.3298 2.80817 25.6465 1.90079 24.7624C1.12128 24.0006 0.491885 23.101 -0.00134277 22.0824V35.1302H34.9997V0H-0.000345952Z" fill="#94A3B8"/>
<path d="M15.6816 31.3418H17.117V31.6256H15.9826V32.29H17.0383V32.5738H15.9826V33.2886H17.1732V33.5726H15.6816V31.3418Z" fill="#020617"/>
<path d="M17.9659 33.106C18.0166 33.185 18.089 33.2475 18.1745 33.286C18.2564 33.3252 18.346 33.3457 18.4368 33.346C18.4888 33.3454 18.5405 33.3373 18.5901 33.322C18.6418 33.307 18.6903 33.283 18.7337 33.2512C18.7761 33.2196 18.8118 33.1798 18.8388 33.1342C18.8666 33.0855 18.8808 33.0303 18.8798 32.9742C18.8798 32.8888 18.8521 32.8222 18.7975 32.7774C18.7369 32.7285 18.6685 32.6902 18.5951 32.6642C18.5142 32.634 18.4265 32.6042 18.3314 32.5762C18.2385 32.5491 18.1497 32.5093 18.0676 32.458C17.9857 32.4066 17.9165 32.3371 17.8653 32.255C17.8106 32.1694 17.7831 32.055 17.7831 31.909C17.787 31.755 17.85 31.6085 17.959 31.5C18.0268 31.4348 18.1061 31.3829 18.1928 31.3468C18.3026 31.3039 18.4198 31.2835 18.5375 31.2868C18.6555 31.2863 18.7729 31.3033 18.886 31.3372C19.0018 31.3736 19.1039 31.4443 19.1789 31.54L18.9335 31.7636C18.8937 31.7029 18.8387 31.6539 18.774 31.6214C18.7008 31.5851 18.62 31.5669 18.5383 31.5684C18.4671 31.5662 18.3962 31.5775 18.3292 31.6016C18.2791 31.6202 18.2336 31.6492 18.1954 31.6866C18.1636 31.7179 18.1395 31.7563 18.125 31.7986C18.1121 31.8336 18.1049 31.8706 18.1039 31.908C18.1039 32.0028 18.1318 32.0754 18.1862 32.1258C18.2453 32.1793 18.314 32.2211 18.3886 32.249C18.4749 32.2821 18.563 32.3105 18.6523 32.334C18.7445 32.3576 18.8331 32.3932 18.9161 32.4398C18.9965 32.4843 19.0657 32.5466 19.1185 32.622C19.1731 32.6988 19.2008 32.804 19.2008 32.9388C19.2021 33.0387 19.1812 33.1377 19.1396 33.2286C19.1007 33.312 19.0444 33.3861 18.9745 33.4458C18.9022 33.5063 18.8192 33.5525 18.7297 33.582C18.6322 33.6134 18.5303 33.6292 18.4279 33.6288C18.2895 33.6293 18.1522 33.6038 18.0232 33.5536C17.9006 33.5075 17.7943 33.4263 17.7175 33.32L17.9659 33.1058V33.106Z" fill="#020617"/>
<path d="M20.4078 31.6256H19.6918V31.3418H21.4253V31.6256H20.7088V33.5726H20.4078V31.6256Z" fill="#020617"/>
<path d="M22.0032 33.5908C21.9484 33.5906 21.8959 33.5688 21.8571 33.53C21.8183 33.4912 21.7963 33.4386 21.7959 33.3836C21.7957 33.3425 21.8077 33.3022 21.8304 33.2679C21.8531 33.2337 21.8855 33.2069 21.9233 33.1912C21.9612 33.1754 22.0029 33.1713 22.0431 33.1793C22.0833 33.1874 22.1202 33.2072 22.1492 33.2364C22.1686 33.2555 22.184 33.2784 22.1946 33.3036C22.2051 33.3288 22.2105 33.3559 22.2105 33.3832C22.2105 33.4105 22.2051 33.4376 22.1946 33.4628C22.184 33.488 22.1686 33.5108 22.1492 33.53C22.1302 33.5495 22.1075 33.5649 22.0824 33.5752C22.0573 33.5855 22.0304 33.5905 22.0032 33.59V33.5908Z" fill="#020617"/>
<path d="M24.0776 31.6882L23.6691 32.066L23.4931 31.8556L24.1121 31.3418H24.3789V33.5726H24.0776V31.6882Z" fill="#020617"/>
<path d="M25.5892 31.9024C25.589 31.9465 25.5969 31.9903 25.6124 32.0316C25.6278 32.0728 25.6507 32.1108 25.6799 32.1436C25.7104 32.1771 25.747 32.2042 25.7878 32.2236C25.8345 32.2459 25.8858 32.2568 25.9375 32.2556C25.9898 32.257 26.0418 32.2467 26.0896 32.2254C26.1308 32.207 26.1678 32.1801 26.1981 32.1466C26.2271 32.1142 26.2494 32.0765 26.2639 32.0354C26.2787 31.9927 26.2862 31.9477 26.286 31.9024C26.2876 31.8559 26.28 31.8095 26.2636 31.766C26.2472 31.7224 26.2222 31.6826 26.1903 31.6488C26.1265 31.5824 26.0418 31.5488 25.9375 31.5488C25.892 31.548 25.8468 31.5562 25.8045 31.5729C25.7622 31.5897 25.7237 31.6148 25.6911 31.6466C25.6227 31.7118 25.5892 31.7968 25.5892 31.9014V31.9024ZM25.9373 33.346C26.0625 33.346 26.165 33.3072 26.2433 33.2304C26.3217 33.1536 26.3612 33.0544 26.3612 32.9324C26.3623 32.8718 26.3512 32.8115 26.3287 32.7552C26.3082 32.7059 26.277 32.6618 26.2374 32.6262C26.1982 32.5903 26.1519 32.5631 26.1016 32.5462C26.0488 32.528 25.9932 32.5191 25.9373 32.52C25.8135 32.5224 25.7122 32.5618 25.6325 32.6382C25.5932 32.6761 25.5622 32.7218 25.5416 32.7725C25.521 32.8231 25.5112 32.8775 25.5129 32.9322C25.5121 32.9925 25.524 33.0523 25.548 33.1076C25.5691 33.1567 25.6007 33.2006 25.6405 33.2362C25.6799 33.2716 25.7257 33.2993 25.7754 33.3176C25.8274 33.3363 25.8821 33.3459 25.9373 33.3458V33.346ZM25.9373 33.6106C25.8406 33.6109 25.7445 33.5953 25.6528 33.5644C25.5677 33.5362 25.4892 33.4908 25.4222 33.431C25.3564 33.3714 25.3042 33.2984 25.2689 33.2168C25.2296 33.1273 25.2101 33.0302 25.2116 32.9324C25.2111 32.8669 25.2223 32.8019 25.2447 32.7404C25.2659 32.6831 25.2962 32.6295 25.3344 32.5818C25.3716 32.5345 25.4166 32.4939 25.4674 32.4618C25.5196 32.4291 25.5763 32.4041 25.6357 32.3878V32.3786C25.5911 32.3666 25.5488 32.3475 25.5103 32.322C25.4675 32.2938 25.4298 32.2584 25.3988 32.2174C25.3642 32.1712 25.3373 32.1197 25.3191 32.0648C25.2971 31.9982 25.2865 31.9282 25.2878 31.858C25.2867 31.7791 25.3043 31.7011 25.3392 31.6304C25.3735 31.5627 25.4218 31.5032 25.481 31.4558C25.5426 31.4059 25.6129 31.3678 25.6883 31.3436C25.8504 31.2913 26.0247 31.2913 26.1867 31.3436C26.2621 31.3678 26.3324 31.4059 26.3939 31.4558C26.4531 31.5029 26.5013 31.5625 26.535 31.6304C26.5705 31.7009 26.5884 31.779 26.5872 31.858C26.5882 31.9283 26.5775 31.9982 26.5553 32.0648C26.5374 32.1198 26.5104 32.1713 26.4756 32.2174C26.4444 32.2582 26.4067 32.2936 26.364 32.322C26.3256 32.3476 26.2834 32.3667 26.239 32.3786V32.3878C26.2983 32.4042 26.3549 32.4291 26.407 32.4618C26.4578 32.4941 26.5028 32.5346 26.5402 32.5818C26.5781 32.6297 26.6082 32.6832 26.6295 32.7404C26.6517 32.802 26.6628 32.867 26.6622 32.9324C26.664 33.0302 26.6448 33.1272 26.6058 33.2168C26.5701 33.2981 26.5178 33.3711 26.4525 33.431C26.3853 33.4909 26.3066 33.5363 26.2212 33.5644C26.1297 33.5953 26.0337 33.6109 25.9371 33.6106H25.9373Z" fill="#020617"/>
<path d="M27.293 33.2512L28.1847 32.3626C28.2169 32.3322 28.2475 32.3002 28.2762 32.2666C28.3051 32.2324 28.3313 32.196 28.3546 32.1578C28.3775 32.1201 28.3959 32.0798 28.4094 32.0378C28.4231 31.9952 28.4298 31.9507 28.4293 31.906C28.4302 31.855 28.4201 31.8045 28.3998 31.7578C28.3812 31.7147 28.3531 31.6765 28.3177 31.6458C28.2818 31.6148 28.2404 31.5908 28.1957 31.575C28.1478 31.5579 28.0974 31.5494 28.0466 31.5498C27.9373 31.5498 27.8472 31.58 27.7766 31.6414C27.703 31.7064 27.6551 31.7957 27.6417 31.8932L27.3147 31.8648C27.3263 31.7743 27.3558 31.6871 27.4014 31.6082C27.442 31.5377 27.4962 31.4762 27.5609 31.4272C27.6266 31.3777 27.701 31.3412 27.7802 31.3196C27.8678 31.2962 27.9581 31.2846 28.0488 31.2852C28.1408 31.2847 28.2324 31.2982 28.3205 31.3252C28.4016 31.3497 28.4774 31.3891 28.544 31.4416C28.6078 31.4934 28.6592 31.559 28.6941 31.6336C28.7323 31.7182 28.751 31.8103 28.7487 31.9032C28.7495 31.9734 28.7385 32.0434 28.7162 32.11C28.6943 32.1731 28.6653 32.2335 28.6297 32.29C28.5939 32.3474 28.5529 32.4014 28.5071 32.4512C28.4616 32.501 28.4132 32.5512 28.363 32.599L27.6319 33.3078H28.7495V33.5724H27.293V33.2512Z" fill="#020617"/>
<path d="M29.4154 33.2512L30.3073 32.3626C30.3393 32.3322 30.3697 32.3002 30.3983 32.2666C30.4271 32.2323 30.4532 32.196 30.4766 32.1578C30.5 32.1203 30.5185 32.0799 30.5318 32.0378C30.5452 31.9951 30.552 31.9507 30.5518 31.906C30.5523 31.855 30.542 31.8045 30.5217 31.7578C30.5032 31.7147 30.4753 31.6764 30.4399 31.6458C30.4039 31.6149 30.3626 31.5909 30.3179 31.575C30.2699 31.5579 30.2192 31.5493 30.1682 31.5498C30.0597 31.5498 29.9688 31.58 29.8985 31.6414C29.8247 31.7063 29.7768 31.7957 29.7635 31.8932L29.4371 31.8648C29.4485 31.7744 29.4777 31.6871 29.523 31.6082C29.564 31.5377 29.6187 31.4761 29.6837 31.4272C29.7494 31.3777 29.8238 31.3412 29.903 31.3196C29.9907 31.2961 30.0811 31.2845 30.1718 31.2852C30.2636 31.2848 30.355 31.2983 30.4429 31.3252C30.524 31.3495 30.5998 31.389 30.6662 31.4416C30.7301 31.4935 30.7817 31.5591 30.8171 31.6336C30.8552 31.7182 30.8739 31.8103 30.8717 31.9032C30.8724 31.9734 30.8615 32.0433 30.8393 32.11C30.8171 32.1731 30.7878 32.2335 30.7519 32.29C30.7163 32.3473 30.6755 32.4012 30.6301 32.4512C30.5839 32.501 30.5362 32.5512 30.4858 32.599L29.7535 33.3078H30.8717V33.5724H29.4148V33.2512H29.4154Z" fill="#020617"/>
<path d="M0.325783 39.9486H0.0139771L0.884003 37.937H1.13879L2.00024 39.9486H1.68286L1.47911 39.4542H0.526543L0.325783 39.9486ZM0.626225 39.2072H1.37663L1.00243 38.2622L0.626225 39.2072Z" fill="#94A3B8"/>
<path d="M3.81322 39.9486H3.53271V37.937H4.78472V38.1842H3.81322V38.8078H4.72292V39.0512H3.81322V39.9486Z" fill="#94A3B8"/>
<path d="M5.46397 39.9486H5.15216L6.02219 37.937H6.27717L7.13863 39.9486H6.82104L6.61729 39.4542H5.66493L5.46397 39.9486ZM5.76441 39.2072H6.51502L6.14041 38.2622L5.76441 39.2072Z" fill="#94A3B8"/>
<path d="M8.0493 39.9486H7.7688V37.937H8.0493V39.9486Z" fill="#94A3B8"/>
<path d="M9.19069 39.9486H8.90979V37.937H9.55334C9.64566 37.9366 9.73777 37.9461 9.82806 37.9654C9.90926 37.9833 9.98664 38.0155 10.0565 38.0606C10.1217 38.1044 10.1748 38.1639 10.211 38.2336C10.2503 38.3145 10.2695 38.4037 10.2669 38.4936C10.2669 38.64 10.2224 38.7598 10.1315 38.8512C10.0406 38.9426 9.92396 38.9994 9.77982 39.0242L10.3408 39.9482H10.0007L9.49074 39.0526H9.19069V39.9486ZM9.19069 38.8174H9.51386C9.57555 38.8179 9.63713 38.8121 9.69768 38.8002C9.75006 38.7904 9.80042 38.7717 9.8466 38.745C9.89089 38.7206 9.92733 38.684 9.95166 38.6396C9.97599 38.5951 9.98719 38.5446 9.98397 38.494C9.98581 38.441 9.97335 38.3885 9.94788 38.342C9.92385 38.3013 9.88998 38.2672 9.84939 38.243C9.80504 38.2173 9.75663 38.1993 9.70625 38.1898C9.64931 38.1798 9.59161 38.1747 9.5338 38.1746H9.19069V38.8174Z" fill="#94A3B8"/>
<path d="M11.304 39.9486H11.0233V37.937H12.2761V38.1842H11.304V38.8078H12.2137V39.0512H11.304V39.9486Z" fill="#94A3B8"/>
<path d="M12.9545 39.9486H12.6427L13.5127 37.937H13.7677L14.6292 39.9486H14.3116L14.1078 39.4542H13.1555L12.9545 39.9486ZM13.2549 39.2072H14.0056L13.6311 38.2622L13.2549 39.2072Z" fill="#94A3B8"/>
<path d="M16.0488 38.6862L16.5247 37.937H16.8542L16.2137 38.8876L16.9424 39.9476H16.5871L16.0382 39.1L15.4999 39.948H15.1541L15.8706 38.8814L15.2252 37.9364H15.5673L16.0488 38.6862Z" fill="#94A3B8"/>
<path d="M20.2337 39.6368C20.1514 39.7463 20.0459 39.8362 19.9249 39.9C19.7987 39.9666 19.6458 40 19.4689 40C19.324 40.0013 19.1803 39.9748 19.0453 39.922C18.9196 39.8729 18.8055 39.7982 18.71 39.7027C18.6146 39.6071 18.54 39.4927 18.4908 39.3668C18.3854 39.0906 18.3861 38.7849 18.4928 38.5092C18.5435 38.3839 18.6197 38.2706 18.7165 38.1766C18.8145 38.0835 18.9296 38.0105 19.0554 37.9616C19.1912 37.9097 19.3356 37.8839 19.4809 37.8856C19.5502 37.8858 19.6194 37.8925 19.6874 37.9056C19.7561 37.9194 19.8234 37.9394 19.8884 37.9656C19.9507 37.9916 20.0098 38.0248 20.0646 38.0644C20.1166 38.1019 20.1624 38.1475 20.2002 38.1994L19.9795 38.3706C19.9251 38.2976 19.8535 38.2394 19.771 38.2014C19.681 38.1563 19.5815 38.1334 19.4809 38.1348C19.3721 38.1331 19.2642 38.1545 19.1643 38.1976C19.0734 38.2387 18.992 38.2982 18.9251 38.3724C18.8577 38.4478 18.8056 38.5356 18.7715 38.631C18.7351 38.7302 18.7168 38.8352 18.7175 38.941C18.7167 39.0499 18.7346 39.1582 18.7706 39.261C18.8029 39.3557 18.8538 39.4431 18.9203 39.5178C18.9863 39.5913 19.0675 39.6497 19.1581 39.6888C19.2571 39.7317 19.3639 39.7531 19.4717 39.7516C19.5786 39.7529 19.6843 39.7295 19.7807 39.6832C19.8732 39.6387 19.9523 39.5704 20.01 39.4854L20.2337 39.6368Z" fill="#94A3B8"/>
<path d="M22.8655 38.94C22.8677 39.0865 22.8406 39.232 22.7857 39.3678C22.7347 39.4938 22.659 39.6082 22.563 39.7044C22.466 39.7988 22.3513 39.8731 22.2255 39.923C22.0902 39.9756 21.9462 40.0021 21.8011 40.001C21.6562 40.0023 21.5124 39.9758 21.3774 39.923C21.2521 39.8729 21.1377 39.7986 21.0409 39.7044C20.9456 39.6081 20.8705 39.4937 20.8202 39.3678C20.7152 39.0916 20.7152 38.7863 20.8202 38.5102C20.8702 38.3852 20.9453 38.272 21.0409 38.1776C21.1379 38.0844 21.2523 38.0114 21.3774 37.9626C21.5126 37.9105 21.6563 37.8847 21.8011 37.8866C21.9461 37.8849 22.0901 37.9107 22.2255 37.9626C22.3511 38.0111 22.4658 38.0842 22.563 38.1776C22.6593 38.2719 22.7351 38.3851 22.7857 38.5102C22.8406 38.6467 22.8677 38.7928 22.8655 38.94ZM22.5623 38.94C22.5629 38.8342 22.5446 38.7292 22.5082 38.63C22.4744 38.5347 22.4225 38.4469 22.3555 38.3714C22.2886 38.2973 22.2071 38.2378 22.1163 38.1966C21.9148 38.1128 21.6884 38.1128 21.4869 38.1966C21.3965 38.2378 21.3155 38.2973 21.249 38.3714C21.1827 38.4472 21.1312 38.5349 21.0975 38.63C21.061 38.7292 21.0427 38.8342 21.0435 38.94C21.0427 39.0476 21.061 39.1544 21.0975 39.2556C21.1315 39.3509 21.1836 39.4388 21.251 39.5142C21.3176 39.5872 21.3986 39.6455 21.4889 39.6854C21.5872 39.7284 21.6935 39.7498 21.8007 39.7482C21.9088 39.7495 22.0159 39.7281 22.1153 39.6854C22.2064 39.6456 22.2883 39.5873 22.3559 39.5142C22.423 39.4387 22.4748 39.3509 22.5086 39.2556C22.5449 39.1544 22.5631 39.0475 22.5623 38.94Z" fill="#94A3B8"/>
<path d="M24.6566 39.4828H24.6614L25.2537 37.937H25.6905V39.9486H25.41V38.266H25.4044L24.7381 39.9486H24.5599L23.8966 38.266H23.8908V39.9486H23.6189V37.937H24.0557L24.6566 39.4828Z" fill="#94A3B8"/>
<path d="M26.5491 37.937H27.1614C27.2606 37.9354 27.3595 37.9462 27.456 37.9692C27.5375 37.987 27.6145 38.021 27.6825 38.0692C27.7445 38.1138 27.7943 38.1733 27.8275 38.2422C27.8632 38.3216 27.8803 38.4081 27.8777 38.4952C27.8803 38.5845 27.8615 38.6732 27.8229 38.7538C27.7871 38.8243 27.7347 38.885 27.6702 38.9306C27.5994 38.9776 27.5208 39.0114 27.4381 39.0306C27.3426 39.0524 27.245 39.0633 27.147 39.063H26.8296V39.947H26.5491V37.937ZM26.8296 38.825H27.1271C27.1904 38.8254 27.2535 38.8196 27.3157 38.8078C27.368 38.7966 27.4182 38.7774 27.4646 38.7508C27.5049 38.7263 27.5382 38.6919 27.5613 38.6508C27.585 38.603 27.5964 38.5501 27.5944 38.4968C27.5965 38.4438 27.5844 38.3912 27.5593 38.3446C27.5357 38.3042 27.5025 38.2702 27.4626 38.2458C27.418 38.218 27.3684 38.1993 27.3167 38.1906C27.2559 38.1804 27.1945 38.1753 27.1329 38.1754H26.8296V38.825Z" fill="#94A3B8"/>
<path d="M28.5061 39.9486H28.1943L29.0643 37.937H29.3191L30.1805 39.9486H29.8632L29.6594 39.4542H28.707L28.5061 39.9486ZM28.8065 39.2072H29.5571L29.1827 38.2622L28.8065 39.2072Z" fill="#94A3B8"/>
<path d="M32.2249 39.5456H32.2304V37.937H32.5109V39.9486H32.1575L31.0981 38.3058H31.0923V39.9486H30.8118V37.937H31.1776L32.2249 39.5456Z" fill="#94A3B8"/>
<path d="M34.1646 39.9486H33.8813V39.08L33.1307 37.9372H33.4766L34.0321 38.846L34.5903 37.9372H34.9162L34.1646 39.08V39.9486Z" fill="#94A3B8"/>
</g>
<defs>
<clipPath id="clip0_63_9425">
<rect width="35" height="40" fill="white"/>
</clipPath>
</defs>
</svg>
