<svg width="104" height="26" viewBox="0 0 104 26" fill="none" xmlns="http://www.w3.org/2000/svg">
<g clip-path="url(#clip0_63_9352)">
<path d="M23.3938 14.3875C23.3938 15.0476 23.6811 15.2362 24.6661 15.2362C25.6511 15.2362 26.1163 14.9533 26.7456 13.6466H26.9782L26.7456 15.6943H20.6167V15.4652C21.547 15.2362 21.6291 15.0342 21.6291 14.1854V9.10669C21.6291 8.3927 21.4512 8.19063 20.6167 8.00203V7.77301H24.4062V8.00203C23.5991 8.2041 23.3938 8.36576 23.3938 9.0528V14.3875Z" fill="#94A3B8"/>
<path d="M29.5638 14.5762C29.5638 15.0881 29.8237 15.371 30.3983 15.4249V15.6539H27.1286V15.4518C27.8264 15.3036 27.9905 15.142 27.9905 14.4819V11.7606C27.9905 11.1275 27.8127 10.9658 27.0602 10.8176V10.5886L29.3175 10.3865H29.5501V14.5762H29.5638ZM28.784 7.23419C29.2765 7.23419 29.6869 7.63834 29.6869 8.12331C29.6869 8.60829 29.2765 9.01243 28.784 9.01243C28.2915 9.01243 27.8811 8.60829 27.8811 8.12331C27.8811 7.63834 28.2915 7.23419 28.784 7.23419Z" fill="#94A3B8"/>
<path d="M32.9429 11.6798C33.4628 11.1948 33.7501 11.087 34.1605 11.087C35.0908 11.087 35.6927 11.9357 35.6927 13.1886C35.6927 14.8456 34.9129 15.5192 33.7774 15.5192C33.1755 15.5192 32.9703 15.2632 32.9703 14.6705V11.6798H32.9429ZM32.9429 7.23419H32.7103L30.6035 7.38238V7.61139C31.096 7.69222 31.3833 7.92124 31.3833 8.37927V15.6943C32.1631 15.8425 32.9429 15.8964 33.9006 15.8964C36.4178 15.8964 37.4028 14.5896 37.4028 13.0135C37.4028 11.5316 36.3357 10.3596 34.9403 10.3596C34.1879 10.3596 33.5859 10.6425 32.9429 11.3026V7.23419Z" fill="#94A3B8"/>
<path d="M39.6874 12.3937C39.7148 11.4238 40.1526 10.7772 40.7819 10.7772C41.4249 10.7772 41.8763 11.4642 41.9447 12.3937H39.6874ZM43.6138 12.7036C43.4086 11.3026 42.3688 10.4 40.8913 10.4C39.277 10.4 38.0047 11.5989 38.0047 13.1886C38.0047 14.7513 39.2223 15.8963 40.8366 15.8963C42.0816 15.8963 43.1486 15.2093 43.6138 14.1316H43.3812C42.8887 14.8725 42.2868 15.2362 41.5343 15.2362C40.5767 15.2362 39.619 14.3875 39.6874 12.7036H43.6138Z" fill="#94A3B8"/>
<path d="M48.5662 12.3533C48.101 11.9223 47.759 11.6932 47.4033 11.6932C46.9382 11.6932 46.6509 11.8953 46.2405 12.4342V14.5088C46.2405 15.1015 46.3499 15.3036 47.1023 15.4518V15.6808H43.8053V15.4518C44.503 15.2767 44.6672 15.0881 44.6672 14.5088V11.8414C44.6672 11.1813 44.3799 10.8984 43.7095 10.8445V10.6155L45.9668 10.4135H46.1994V12.03H46.2268C46.7466 10.9254 47.2939 10.4135 47.9369 10.4135C48.2789 10.4135 48.6072 10.5616 48.8671 10.8445L48.5662 12.3533Z" fill="#94A3B8"/>
<path d="M57.3218 10.5886V10.8176C57.9921 10.9658 58.1289 11.3564 57.6638 12.4342L56.9387 14.0507L55.8442 11.8279C55.5296 11.1678 55.5296 10.8849 56.1042 10.8041V10.5751H53.0944H53.0124H51.5075V8.63519H51.2749C50.5498 9.55126 49.688 10.373 49.045 10.7772V11.0331H49.9753V14.3067C49.9753 15.4787 50.7551 15.9233 51.7401 15.9233C52.5199 15.9233 53.0124 15.6673 53.3817 15.0072L53.2039 14.859C52.944 15.1419 52.7114 15.2632 52.4515 15.2632C51.7264 15.2632 51.4938 14.7782 51.4938 13.9564V10.9927H52.8756C53.628 10.9927 53.8606 11.2487 54.1752 11.9627L56.0495 15.8963C55.4065 17.5803 54.8592 18.2538 53.9153 18.2538C53.7101 18.2538 53.5459 18.2538 53.2176 18.1461L52.9029 19.6818C53.1081 19.7088 53.1902 19.7088 53.3407 19.7088C54.4078 19.7088 54.9824 19.2507 55.5433 18.0248L58.1426 12.1647C58.5804 11.2217 58.7172 11.0196 59.3875 10.858V10.629H57.3218V10.5886Z" fill="#94A3B8"/>
<path d="M72.302 14.2663C72.3841 14.9534 72.7398 15.344 73.5196 15.4922V15.7212H69.5522V15.4922C70.4141 15.2632 70.5919 14.7782 70.4141 13.7544L69.7437 9.22797H69.7164L67.1171 15.7212H66.8298L64.2578 9.22797H64.2305L63.5328 13.8756C63.3823 14.7917 63.5601 15.4114 64.4904 15.4653V15.6943H61.5627V15.4653C62.4246 15.4383 62.8077 14.9534 62.9855 13.7274L63.7927 8.56786C63.478 8.25802 63.0402 8.029 62.6298 8.029V7.79999H65.5301L67.6369 13.0135L69.7711 7.79999H72.5072V8.05595C71.7001 8.20413 71.4949 8.62175 71.6043 9.33574L72.302 14.2663Z" fill="#94A3B8"/>
<path d="M74.1489 11.7606C74.1489 11.1948 73.9437 10.9927 73.3418 10.8715V10.6424L75.4759 10.4404H75.7085V14.1989C75.7085 14.7917 76.1189 15.088 76.6661 15.088C77.186 15.088 77.5007 14.859 77.9658 14.172V11.6528C77.9658 11.2217 77.6785 10.9927 77.1586 10.8849V10.6559L79.2928 10.4538H79.5254V14.4953C79.5254 15.1823 79.6759 15.3171 80.3599 15.5191V15.7481L77.9932 15.9502V14.6974H77.9658C77.3912 15.5461 76.7482 15.9502 75.9137 15.9502C74.8466 15.9502 74.2036 15.3844 74.2036 14.3875V11.7606H74.1489Z" fill="#94A3B8"/>
<path d="M81.5228 11.0466H80.5925V10.7907C81.2355 10.3865 82.0973 9.59169 82.8224 8.64868H83.0823V10.6155H84.7924V11.0197H83.0823V13.9565C83.0823 14.7782 83.3149 15.2632 84.04 15.2632C84.2999 15.2632 84.5598 15.1554 84.7924 14.859L84.9703 15.0072C84.6009 15.6404 84.0673 15.9233 83.3286 15.9233C82.3436 15.9233 81.5638 15.4653 81.5638 14.3067V11.0466H81.5228Z" fill="#94A3B8"/>
<path d="M85.7774 11.7606C85.7774 11.1948 85.5722 10.9927 84.9703 10.8715V10.6424L87.1045 10.4404H87.337V14.1989C87.337 14.7917 87.7474 15.088 88.2947 15.088C88.8145 15.088 89.1292 14.859 89.5943 14.172V11.6528C89.5943 11.2217 89.3344 10.9927 88.7872 10.8849V10.6559L90.9213 10.4538H91.1539V14.4953C91.1539 15.1823 91.3044 15.3171 91.9611 15.5191V15.7481L89.5943 15.9502V14.6974H89.567C88.9924 15.5461 88.3494 15.9502 87.5149 15.9502C86.4478 15.9502 85.8048 15.3844 85.8048 14.3875V11.7606H85.7774Z" fill="#94A3B8"/>
<path d="M95.4907 14.859C95.1486 15.1958 94.8203 15.3979 94.5056 15.3979C94.0679 15.3979 93.7806 15.0342 93.7806 14.4818C93.7806 13.7948 94.191 13.485 95.4633 12.9461V14.859H95.4907ZM97.0639 12.3264C97.0639 10.9254 95.9011 10.4135 94.7793 10.4135C93.5617 10.4135 92.7272 11.0466 92.4672 12.1513H92.6724C92.9871 11.5855 93.507 11.3026 94.232 11.3026C95.1623 11.3026 95.5317 11.7337 95.5317 12.6363C94.2594 13.0943 92.2073 13.2021 92.2073 14.5761C92.2073 15.3171 92.905 15.9098 93.7669 15.9098C94.4099 15.9098 94.8613 15.7616 95.3812 15.3171L95.4907 15.2093C95.7506 15.7212 96.0926 15.9233 96.7356 15.9233C97.488 15.9233 97.9532 15.5865 98.0079 14.9264H97.7753C97.7206 15.2362 97.5701 15.4114 97.3649 15.4114C97.1323 15.4114 97.0502 15.2093 97.0502 14.7243V12.3264H97.0639Z" fill="#94A3B8"/>
<path d="M99.0887 8.66214C99.0887 7.94816 98.8561 7.6922 98.1037 7.63831V7.40929L100.388 7.26111H100.621V14.4953C100.621 15.1824 100.771 15.3171 101.551 15.5191V15.7482H98.1037V15.5191C98.8561 15.4114 99.0887 15.1554 99.0887 14.4953V8.66214Z" fill="#94A3B8"/>
<path d="M18.7424 10.3057C18.6877 10.2249 18.5372 10.2787 18.5372 10.2787L16.1431 11.1948C15.9653 10.7368 15.7327 10.3057 15.5001 9.94195L16.2799 7.8404C16.2799 7.8404 16.362 7.63832 16.2799 7.58444C16.1978 7.53055 16.0474 7.66527 16.0474 7.66527L14.6383 8.79687C14.091 8.23107 13.4207 7.7461 12.6956 7.39584C12.4083 7.28807 12.121 7.16682 11.8337 7.08599L11.3959 5.429C11.3959 5.429 11.3686 5.25387 11.2455 5.25387C11.136 5.25387 11.095 5.429 11.095 5.429L10.8077 6.91086C10.493 6.88392 10.1647 6.85698 9.85004 6.85698C8.78295 6.85698 7.85267 7.05905 7.01815 7.42278C6.67614 7.57097 6.32044 7.75957 6.03315 7.98858C5.97843 8.01553 5.95107 8.06941 5.88266 8.09636C5.59537 7.35542 5.3628 6.76268 5.30808 6.5606C5.48592 6.41242 5.80058 5.87356 5.88266 5.53677C5.99211 5.02485 5.96475 4.79584 5.8553 4.43211C5.77322 4.14921 5.59537 3.89325 5.59537 3.71812C5.59537 3.56993 5.67745 3.4891 5.74586 3.43522C5.7185 3.26009 5.59537 3.17926 5.45856 3.15231C5.32176 3.12537 5.22599 3.17926 5.11655 3.17926C5.08919 3.12537 5.03446 3.12537 5.06183 2.95024C5.11655 2.66734 5.70481 2.51915 6.12891 2.3575C6.7035 2.12848 7.03183 1.72434 7.0592 1.0777C7.0592 0.592729 6.79926 0.255941 6.45725 0.0808118C6.40253 0.282884 6.11523 0.538843 5.91002 0.646615C5.70481 0.754387 5.44488 0.794801 5.23967 0.754387C5.26704 0.417599 5.13023 0.0942832 4.8703 -0.0134888C4.78821 0.134698 4.45988 0.350242 4.00842 0.323299C3.54328 0.323299 3.51592 0.215527 2.84557 0.215527C1.88792 0.215527 1.10813 0.78133 1.02605 1.61656C0.971323 2.15542 1.17653 2.61345 1.3407 2.84247C1.23126 2.9233 0.930282 3.17926 0.90292 3.27356C0.848198 3.19273 0.642989 3.09843 0.410418 3.24661C0.465141 3.35439 0.465141 3.50257 0.43778 3.65076C0.410418 3.78548 0.0684032 4.44558 1.71363e-07 4.98444C-0.0547223 5.9005 0.465141 6.49325 0.90292 6.66838C0.820837 6.81656 0.793476 6.97822 0.848198 7.09946C0.90292 7.18029 0.998685 7.27459 1.16285 7.27459C1.05341 7.38237 1.01237 7.5575 1.08077 7.73263C1.16285 7.9347 1.39542 8.2176 1.57327 8.2176C1.57327 8.39273 1.62799 8.75646 1.68272 8.93159C1.62799 9.03936 1.53223 9.1606 1.57327 9.38962C1.57327 9.61863 1.75112 9.82071 1.94265 9.87459C1.99737 9.98237 2.02473 10.1306 2.09313 10.1844C2.14786 10.2653 2.20258 10.3596 2.38043 10.4404C2.53091 10.5212 2.69508 10.6155 2.90029 10.6155C3.1055 10.6155 3.26967 10.6155 3.36543 10.5886C3.36543 10.6425 3.39279 11.1544 3.42015 11.7337C2.92765 13.0943 2.66772 14.6704 2.66772 16.3409C2.66772 19.3585 3.5296 22.0663 5.21231 23.8041C5.21231 23.8041 5.2944 23.9119 5.58169 24.087C5.58169 24.087 6.10155 23.1979 6.90871 22.201C7.11392 21.9451 7.34649 21.6891 7.60642 21.4601C8.01684 21.1233 8.38621 20.8269 8.72823 20.571C9.76796 19.8839 10.9582 19.3451 12.0526 19.116C10.7803 19.7761 10.0826 20.1129 8.90608 21.1098C8.15364 21.743 6.96343 22.8746 6.12891 24.3834C6.30676 24.5316 6.53933 24.6394 6.79926 24.6663C6.97711 24.4642 7.86635 22.8746 9.23441 21.5679C12.0116 19.0352 15.2539 18.429 16.9503 18.4694C17.0324 17.7824 17.1008 17.0414 17.1008 16.3005C17.1008 15.0746 16.9913 13.943 16.7314 12.8518L18.7424 10.6155C18.6604 10.5347 18.7972 10.4 18.7424 10.3057Z" fill="#94A3B8"/>
<path d="M3.62536 9.3088C3.51591 9.25491 3.18758 9.07978 2.92765 9.10672C2.66772 9.10672 2.43515 9.16061 2.22994 9.3088C2.14785 9.25491 2.12049 9.13367 2.17521 8.99895C2.22994 8.85077 2.3257 8.85077 2.3257 8.85077L2.24362 7.57097C2.24362 7.57097 2.61299 7.31501 2.70876 7.28807C2.79084 7.26113 2.85924 7.1803 2.85924 7.086C3.03709 7.19377 3.26966 7.42279 3.37911 7.59792C3.48855 7.77305 3.55696 7.9347 3.58432 8.13678C3.58432 8.33885 3.58432 8.59481 3.55696 8.85077C3.63904 8.90465 3.70744 8.95854 3.7348 9.07978C3.70744 9.20102 3.68008 9.22797 3.62536 9.3088Z" fill="#020617"/>
<path d="M15.3907 13.2694C15.3907 13.0134 15.076 12.3533 14.8982 12.2186L17.9626 10.8849L15.3907 13.2694Z" fill="#020617"/>
<path d="M6.97711 8.258L9.57643 10.5616C9.3165 10.7098 8.93344 11.0735 8.85135 11.3834L6.97711 8.258Z" fill="#020617"/>
<path d="M8.50934 12.8383C8.42726 12.9865 8.3999 13.0674 8.35885 13.2021C8.33149 13.3772 8.35885 13.458 8.35885 13.6062L7.57906 13.0674C7.57906 12.8922 7.5517 12.5824 7.52434 12.4342C7.52434 12.4073 7.52434 12.3803 7.52434 12.3803L8.50934 12.8383Z" fill="#020617"/>
<path d="M4.10419 13.0674C4.04946 12.9865 3.81689 8.28497 3.81689 8.10984L4.07683 7.93471V7.88083C3.89898 7.88083 3.66641 7.8 3.61169 7.67876L3.55696 6.26425C3.29703 6.23731 3.0371 6.15648 2.95502 6.06218C2.84557 5.9544 2.72245 5.80622 2.87293 5.52332C2.98238 5.60414 3.36543 5.72539 3.70745 5.72539C3.76217 5.72539 3.91266 5.87357 3.99474 5.90052C4.07683 5.92746 4.25467 6.00829 4.3094 6.0487C4.36412 6.07565 4.41884 6.22383 4.41884 6.27772C4.4462 6.33161 6.81295 12.3938 6.85399 12.4611C6.89503 12.5285 7.03184 13.5389 7.03184 13.6332C7.03184 13.714 7.40121 14.5223 7.46962 14.6031C7.15496 14.6031 6.6351 14.7782 6.22468 15.1689C5.81426 15.5731 5.44489 16.4487 5.3628 16.8528C5.32176 16.6642 4.17259 13.1617 4.10419 13.0674Z" fill="#020617"/>
<path d="M7.11392 18.887C7.00447 19.8301 6.79926 20.6249 6.44357 21.1907C6.211 21.5544 5.60905 22.3358 5.37648 22.5917C5.60905 22.1337 5.7869 21.0021 5.7869 20.1399C5.7869 19.5741 5.60905 18.3212 5.75954 17.486C5.93739 16.5969 6.19732 16.085 6.7719 15.5461C7.08656 15.2632 7.70218 14.913 8.61878 15.142L9.34386 16.4756C8.97448 16.3948 8.44094 16.4756 8.09892 16.7316C7.46961 17.257 7.23704 17.9171 7.11392 18.887Z" fill="#020617"/>
<path d="M7.20969 20.7057C7.38753 20.3015 7.6201 19.1969 7.67483 18.8197C7.75691 18.3347 7.85267 17.6477 8.42726 17.1627C8.71455 16.9337 9.17969 16.9067 9.3849 16.9606L10.1921 18.6176C10.2741 18.7927 10.5067 18.8466 10.6846 18.8466C9.89109 19.0756 7.96212 19.9917 7.20969 20.7057Z" fill="#020617"/>
<path d="M14.2005 15.4383C14.05 15.6404 14.1184 15.8425 14.2005 15.9772C14.2826 16.1254 14.7203 16.9202 14.7203 16.9202C14.8708 17.2839 14.9529 17.4591 15.0897 17.6881C15.3223 17.6881 15.5822 17.6881 15.8421 17.6881C15.5549 17.0549 14.8845 15.8425 14.8845 15.8425L14.8298 14.8456C14.6656 14.9534 14.351 15.2363 14.2005 15.4383Z" fill="#020617"/>
<path d="M10.6982 10.1709C11.0129 10.1171 11.7653 10.1709 11.9979 10.2787L11.2455 6.11603L10.6982 10.1709Z" fill="#020617"/>
<path d="M4.43251 6.29115C4.40515 6.23726 4.37779 6.08907 4.32307 6.06213C4.24098 6.03519 4.0905 5.95436 4.00841 5.91395C3.92633 5.887 3.77584 5.73882 3.72112 5.73882C3.40647 5.73882 3.02341 5.63104 2.8866 5.53674C2.73612 5.7927 2.85924 5.94089 2.96869 6.0756C3.05077 6.15643 3.33806 6.25073 3.57063 6.27768L3.62536 7.7326C3.68008 7.84037 3.91265 7.90773 4.0905 7.90773V7.96161L3.83057 8.13674C3.83057 8.31187 4.06314 13 4.11786 13.0943C4.17258 13.1751 5.33543 16.6777 5.36279 16.8797C5.44488 16.4756 5.82793 15.6 6.22467 15.1958C6.66245 14.7917 7.15495 14.6031 7.46961 14.63C7.41489 14.5492 7.03183 13.7409 7.03183 13.6601C7.03183 13.5792 6.88134 12.5823 6.85398 12.488C6.82662 12.4207 4.45987 6.38545 4.43251 6.29115Z" fill="#020617"/>
<path d="M2.92765 5.15956C3.598 5.15956 3.91266 5.44246 4.0905 5.59065C4.11787 5.36163 4.06314 5.15956 3.85793 4.9979C3.68009 4.84972 3.36543 4.74194 2.90029 4.74194C2.58564 4.74194 2.2573 4.82277 2.06577 4.9979C1.88793 5.14609 1.86056 5.30775 1.88793 5.5637C1.94265 5.38858 2.38043 5.15956 2.92765 5.15956Z" fill="#020617"/>
<path d="M1.71008 1.71089C1.68271 1.96685 1.7648 2.22281 1.88792 2.39794C1.94265 2.47877 2.12049 2.65389 2.22994 2.65389C2.40779 2.65389 2.54459 2.34405 2.95501 2.34405C3.21494 2.34405 3.39279 2.70778 3.598 2.70778C3.77585 2.70778 3.85793 2.55959 4.03578 2.53265C4.18627 2.50571 4.24099 2.58654 4.32307 2.68084C4.37779 2.53265 4.47356 2.45182 4.69245 2.27669C4.95238 2.07462 5.8553 1.91296 6.25204 1.5627C6.45725 1.38757 6.48461 1.07773 6.42989 0.875657C6.2794 1.07773 5.88266 1.30674 5.47224 1.30674C5.26703 1.30674 4.80189 1.22592 4.63773 1.13162C4.71981 0.983428 4.74717 0.821771 4.66509 0.673584C4.55564 0.754413 3.96738 0.82177 3.76217 0.82177C3.55696 0.82177 3.11918 0.740941 2.80452 0.767884C2.09313 0.794827 1.73744 1.2798 1.71008 1.71089Z" fill="#020617"/>
<path d="M2.95501 3.9067C4.5146 3.93364 5.21231 4.64763 5.23968 5.21343C5.32176 5.0383 5.2944 4.87665 5.2944 4.67457C5.2944 4.52639 5.06183 4.08183 5.03447 3.93364C5.03447 3.78545 5.06183 3.67768 5.08919 3.56991C5.00711 3.59685 4.65141 3.7181 4.5146 3.59685C4.36412 3.48908 4.45988 3.16577 4.25467 3.08494C4.04946 3.00411 3.73481 3.26007 3.50224 3.23312C3.29703 3.20618 3.13286 2.92328 2.90029 2.92328C2.66772 2.92328 2.58564 3.17924 2.32571 3.23312C2.1205 3.28701 1.86056 3.15229 1.75112 3.17924C1.60063 3.17924 1.54591 3.28701 1.49119 3.40825C1.43647 3.51602 1.38174 3.58338 1.23126 3.63727C1.12181 3.66421 0.916603 3.55644 0.820839 3.58338C0.875561 3.63727 0.930283 3.92017 0.8482 4.0953C0.766116 4.29737 0.588268 4.52639 0.588268 4.78235C0.547226 4.98442 0.642991 5.06525 0.697713 5.24038C0.670352 4.41862 1.60063 3.86628 2.95501 3.9067Z" fill="#020617"/>
<path d="M1.97001 6.83001C1.86056 6.85695 1.62799 7.03208 1.53223 7.19374C1.55959 7.30151 1.71008 7.59788 1.81952 7.65177C1.84688 7.54399 1.99737 7.31498 2.05209 7.24762C2.13418 7.19374 2.2573 7.13985 2.31202 7.09944C2.39411 7.07249 2.42147 7.01861 2.42147 6.92431C2.42147 6.84348 2.42147 6.77612 2.36675 6.69529C2.44883 6.69529 2.59932 6.69529 2.62668 6.6414C2.6814 6.58752 2.70876 6.49322 2.70876 6.41239C2.70876 6.33156 2.6814 6.30462 2.59932 6.30462C2.51723 6.30462 2.2573 6.27767 2.13418 6.30462C2.13418 6.30462 2.33939 6.19684 2.39411 6.15643C2.44883 6.12949 2.47619 6.0756 2.47619 6.00824C2.47619 5.94089 2.47619 5.83311 2.44883 5.72534C2.16154 5.72534 1.64167 5.9813 1.49119 6.12949L1.60063 6.38545H1.39542C1.36806 6.53363 1.39542 6.72223 1.45015 6.84348C1.65535 6.83 1.86056 6.83001 1.97001 6.83001Z" fill="#020617"/>
<path d="M14.693 12.9057C14.6656 12.7036 14.1731 12.1647 13.366 11.5451C12.723 11.0601 11.8064 10.6021 11.0266 10.6021C9.72691 10.6021 9.20705 11.4912 9.08393 11.9357C9.0292 12.2186 9.0292 12.5015 9.08393 12.6767C8.87872 12.8518 8.79663 12.9865 8.76927 13.1886C8.74191 13.3368 8.76927 13.5254 8.91976 13.6736C8.91976 13.4715 9.0292 13.2694 9.15233 13.1347C9.26177 12.9596 9.46698 12.9057 9.64483 12.7979L9.67219 13.1347C9.49434 13.2155 9.30282 13.4176 9.30282 13.5388V14.1046L9.7406 13.8487L9.82268 14.0238L9.64483 15.0476L9.90476 14.9938L10.3699 15.1689L9.93212 15.573V15.7212C9.93212 15.7212 9.98685 15.6404 10.1647 15.6404C10.3152 15.6404 10.7119 15.8155 10.7119 15.8155L10.6846 15.8964H10.5067H9.90476C9.8774 16.0041 9.95948 16.0715 10.0142 16.1254C10.1237 16.0984 10.2194 16.0445 10.2741 16.0445C10.3289 16.0445 10.4793 16.0715 10.5888 16.0984L10.4383 16.3005C10.4383 16.3005 10.3562 16.3544 10.2331 16.3274C10.151 16.3005 10.0826 16.4083 10.0826 16.5026C10.0826 16.5834 10.1373 16.8124 10.1373 16.8124C10.2194 17.1223 10.5478 17.0684 10.6025 17.0684C10.8077 17.0414 11.5328 16.8124 11.5328 16.8124L10.8624 17.7554L11.1497 18.7523C11.5875 18.5772 12.9145 18.0922 14.3646 17.8632C14.2142 17.6072 14.1868 17.4995 13.9953 17.1223L13.2428 15.4383L13.3523 15.1824C13.5301 15.2362 13.7627 15.1285 13.9269 14.9803C14.091 14.8321 14.2689 14.6166 14.3646 14.4684C14.2552 14.4145 14.1594 14.4145 14.0773 14.4953C13.9953 14.5492 13.9269 14.6704 13.7901 14.6031C13.6533 14.5357 13.7353 14.401 13.7353 14.2663C13.7627 14.1181 13.5848 14.1181 13.4754 14.2394C13.366 14.3471 13.106 14.2932 12.9555 14.1316C12.7777 13.9565 11.9979 13.3368 11.738 13.1616C11.3275 12.9326 10.7803 12.8787 10.4109 12.9326C10.1784 12.9596 10.0005 13.0808 9.91844 13.0134L9.63115 12.5285L9.68587 12.5015C9.79532 12.5554 9.89108 12.6093 10.0279 12.5824C10.1784 12.5285 10.5751 12.4342 10.9855 12.4342C11.5601 12.4342 12.2852 12.6362 12.5998 12.771C12.5998 13.1347 13.3796 13.6197 13.7217 13.687C14.0089 13.714 14.1868 13.6601 14.3646 13.5388L13.6122 12.8787L14.0226 12.3938C14.0226 12.3938 14.6656 12.9865 14.7477 13.1078C14.7477 13.0943 14.7203 12.9865 14.693 12.9057ZM10.1784 13.6736C10.1784 13.6736 10.493 13.4984 10.8214 13.4176C11.2865 13.3368 11.779 13.5927 12.121 13.8756L12.0663 13.9834L11.5464 14.0912C11.4644 14.0103 11.2591 13.9834 11.0539 13.9834C10.8761 13.9834 10.7393 14.0642 10.7393 14.0642L10.8214 14.2394L10.5888 14.2932C10.4793 14.1451 10.3289 14.0103 10.1784 13.9565V13.6736ZM9.39858 12.5015C9.24809 12.0704 9.63115 11.6124 9.76796 11.4777L10.0279 12.0435C9.83636 12.1378 9.54907 12.3533 9.39858 12.5015ZM11.7516 12.0166C11.5191 11.8414 10.7393 11.8684 10.4246 11.9627L10.1921 11.2756C10.3699 11.1274 10.7119 11.0466 11.0266 11.0466C11.3412 11.0466 11.6696 11.1274 11.9295 11.2487L11.7516 12.0166ZM13.2839 12.7036C12.9692 12.5015 12.3262 12.1917 12.121 12.1378L12.4083 11.4238C12.6409 11.5316 13.5028 12.057 13.6533 12.1917L13.2839 12.7036Z" fill="#020617"/>
<path d="M13.1608 10.7906C13.448 10.8984 14.0637 11.4238 14.2278 11.5316L15.7874 8.258L13.1608 10.7906Z" fill="#020617"/>
<path d="M103.097 13.9295C103.562 13.9295 104 14.2932 104 14.8456C104 15.3844 103.562 15.7616 103.097 15.7616C102.632 15.7616 102.194 15.3979 102.194 14.8456C102.194 14.2932 102.646 13.9295 103.097 13.9295ZM103.097 15.5461C103.466 15.5461 103.795 15.2632 103.795 14.8321C103.795 14.401 103.48 14.1181 103.097 14.1181C102.714 14.1181 102.399 14.401 102.399 14.8321C102.44 15.2632 102.728 15.5461 103.097 15.5461ZM102.755 14.3471H103.124C103.384 14.3471 103.494 14.4279 103.494 14.63C103.494 14.8052 103.384 14.886 103.234 14.886L103.494 15.3171H103.316L103.056 14.886H102.906V15.3171H102.728V14.3471H102.755ZM102.96 14.7782H103.138C103.248 14.7782 103.343 14.7513 103.343 14.63C103.343 14.5088 103.234 14.4818 103.138 14.4818H102.96V14.7782Z" fill="#94A3B8"/>
<path d="M52.1231 18.5367H20.7398V18.8466H52.1231V18.5367Z" fill="#94A3B8"/>
<path d="M101.688 18.5367H56.4325V18.8466H101.688V18.5367Z" fill="#94A3B8"/>
<path d="M38.8119 21.5544H39.619V25.8518H38.8119V21.5544Z" fill="#94A3B8"/>
<path d="M42.0542 21.5544H42.8066L44.6261 24.5989V21.5544H45.3786V25.8518H44.6261L42.8066 22.8072V25.8518H42.0542V21.5544Z" fill="#94A3B8"/>
<path d="M47.9779 24.572C48.2926 25.03 48.7577 25.2321 49.3049 25.2321C49.7153 25.2321 50.2352 25.0839 50.2352 24.6932C50.2352 24.3564 49.9205 24.2621 49.3323 24.1274L48.8398 24.0196C48.1421 23.8445 47.5401 23.6155 47.5401 22.8207C47.5401 21.9046 48.402 21.487 49.2228 21.487C49.9753 21.487 50.5772 21.7699 51.0424 22.3357L50.3446 22.8476C50.1394 22.4435 49.7427 22.2145 49.1818 22.2145C48.7166 22.2145 48.3473 22.3896 48.3473 22.6994C48.3473 23.0632 48.7577 23.1305 49.2502 23.2383L49.7701 23.3461C50.413 23.4943 51.0424 23.7502 51.0424 24.572C51.0424 25.6227 50.03 26 49.1271 26C48.402 26 47.6496 25.6901 47.2528 25.0839L47.9779 24.572Z" fill="#94A3B8"/>
<path d="M56.7198 24.545C56.7198 25.4341 56.0221 25.973 54.955 25.973C53.9153 25.973 53.1902 25.4072 53.1902 24.545V21.5813H53.9974V24.343C53.9974 24.8549 54.2299 25.1917 54.9276 25.1917C55.6527 25.1917 55.8579 24.8549 55.8579 24.343V21.5813H56.6651V24.545H56.7198Z" fill="#94A3B8"/>
<path d="M59.0592 21.5544H60.8787C61.809 21.5544 62.3562 22.0932 62.3562 22.8611C62.3562 23.8311 61.6859 24.0601 61.4943 24.1409L62.4793 25.8787H61.5217L60.6872 24.2891H59.9074V25.8787H59.1002V21.5544H59.0592ZM59.8663 23.5751H60.7693C61.1797 23.5751 61.4943 23.3461 61.4943 22.915C61.4943 22.5109 61.2344 22.2549 60.6598 22.2549H59.88L59.8663 23.5751Z" fill="#94A3B8"/>
<path d="M65.5301 21.5544H66.4878L67.9379 25.8518H67.076L66.8161 25.03H65.1744L64.9145 25.8518H64.0526L65.5301 21.5544ZM65.9953 22.3492L65.3933 24.316H66.6109L65.9953 22.3492Z" fill="#94A3B8"/>
<path d="M69.7848 21.5544H70.5372L72.3567 24.5989V21.5544H73.1092V25.8518H72.3841L70.5646 22.8072V25.8518H69.7848V21.5544Z" fill="#94A3B8"/>
<path d="M78.2941 23.0093C78.2394 22.5243 77.829 22.2145 77.3365 22.2145C76.4746 22.2145 76.0916 22.9824 76.0916 23.7233C76.0916 24.4642 76.4609 25.2321 77.3365 25.2321C77.9111 25.2321 78.2394 24.8684 78.3762 24.343L79.1287 24.6798C78.7866 25.5285 78.1984 25.9596 77.3365 25.9596C75.9547 25.9596 75.257 24.9088 75.257 23.7098C75.257 22.4839 76.0368 21.4601 77.3365 21.4601C78.1984 21.4601 78.8687 21.9181 79.1013 22.7938L78.2941 23.0093Z" fill="#94A3B8"/>
<path d="M80.8934 21.5544H83.9853V22.2953H81.728V23.2653H83.8074V23.9793H81.728V25.0839H84.1631V25.8248H80.9208V21.5544H80.8934Z" fill="#94A3B8"/>
</g>
<defs>
<clipPath id="clip0_63_9352">
<rect width="104" height="26" fill="white"/>
</clipPath>
</defs>
</svg>
