<svg width="104" height="21" viewBox="0 0 104 21" fill="none" xmlns="http://www.w3.org/2000/svg">
<g clip-path="url(#clip0_63_9337)">
<mask id="mask0_63_9337" style="mask-type:luminance" maskUnits="userSpaceOnUse" x="0" y="0" width="104" height="21">
<path d="M0 0.0183105H104V20.1214H0V0.0183105Z" fill="white"/>
</mask>
<g mask="url(#mask0_63_9337)">
<path d="M98.2478 15.9075C98.2478 14.18 99.0227 13.1145 100.107 13.1145C100.666 13.1145 101.177 13.3729 101.549 13.8248V17.7479C101.115 18.3454 100.588 18.6681 100.014 18.6681C98.9761 18.6681 98.2478 17.6353 98.2478 15.9075ZM99.1932 20.1214C100.154 20.1214 101.038 19.5725 101.549 18.6684V19.9437H103.998C103.688 19.3141 103.626 18.184 103.626 17.3606V8.22305L101.161 8.61037C101.487 9.20784 101.549 10.3379 101.549 11.2098V12.6305C101.053 12.0008 100.34 11.6618 99.5808 11.6618C97.6589 11.6618 96.1244 13.4054 96.1244 15.9402C96.1244 18.4909 97.4574 20.1214 99.1932 20.1214ZM90.5604 19.944H93.3502C93.0712 19.3468 92.9781 18.2003 92.9781 17.2638V14.8584C93.4587 14.0028 94.0632 13.486 94.8847 13.486C95.2568 13.486 95.6441 13.5506 95.892 13.6477L95.7682 11.7585C95.6285 11.6942 95.365 11.6457 95.1016 11.6457C94.2647 11.6457 93.4276 12.3399 92.9781 13.8897V11.7585L90.514 12.1458C90.8394 12.7594 90.9014 13.8894 90.9014 14.745V17.2635C90.9014 18.2001 90.8239 19.3462 90.5604 19.944ZM85.7869 18.7169C84.7021 18.7169 83.9736 17.6999 83.9736 15.9078C83.9736 14.1157 84.7021 13.0987 85.7558 13.0987C86.8408 13.0987 87.5693 14.1157 87.5693 15.9078C87.5693 17.6999 86.8563 18.7169 85.7869 18.7169ZM85.7713 20.1214C88.0186 20.1214 89.708 18.3295 89.708 15.8595C89.708 13.4214 88.0341 11.662 85.7713 11.662C83.5241 11.662 81.8346 13.4378 81.8346 15.9078C81.8346 18.3617 83.5085 20.1214 85.7713 20.1214ZM77.4175 19.944H80.2229C79.9438 19.3468 79.8508 18.2003 79.8508 17.2638V13.1631H81.6486V11.8389H79.8353C79.8197 11.4516 79.8042 11.0643 79.8042 10.6767C79.8042 9.90179 80.1296 9.53029 80.7651 9.53029C81.0905 9.53029 81.4781 9.62732 81.819 9.80476L81.6333 8.25495C81.2613 8.12575 80.7807 8.04507 80.3467 8.04507C78.735 8.04507 77.7585 9.1108 77.7585 10.9027V11.8392H76.4411L76.1468 13.1631H77.7585V17.2638C77.7585 18.2001 77.681 19.3468 77.4175 19.944ZM74.1163 20.1053C74.7208 20.1053 75.356 19.9279 75.7747 19.718L75.883 18.4263C75.6353 18.5394 75.2788 18.6847 74.9379 18.6847C74.3487 18.6847 74.0078 18.3617 74.0078 17.6999V13.1631H75.6662L75.9607 11.8389H74.0078V9.65975L71.9463 10.1117V11.8392H70.8152L70.8771 13.1631H71.9463V17.9256C71.9463 19.3301 72.7059 20.1053 74.1163 20.1053ZM65.1115 19.9437H67.9015C67.6225 19.3465 67.5295 18.2001 67.5295 17.2635V14.8581C68.0098 14.0026 68.6145 13.4858 69.4358 13.4858C69.8079 13.4858 70.1952 13.5504 70.4431 13.6474L70.3193 11.7582C70.1796 11.6939 69.9161 11.6454 69.6527 11.6454C68.8158 11.6454 67.979 12.3396 67.5295 13.8894V11.7585L65.0651 12.1458C65.3905 12.7594 65.4525 13.8894 65.4525 14.745V17.2635C65.4525 18.2001 65.3753 19.346 65.1115 19.9437ZM58.99 17.7642C58.99 17.2314 59.2998 16.8116 60.0439 16.6664L61.6712 16.3112V17.7157C61.2683 18.2322 60.6481 18.7005 59.9973 18.7005C59.3617 18.7005 58.99 18.3293 58.99 17.7642ZM59.2068 20.1051C60.2452 20.1051 61.1442 19.4108 61.6712 18.5231C61.6865 19.0235 61.7487 19.6207 61.8572 19.9437H64.12C63.841 19.4433 63.7324 18.5552 63.7324 17.8932V14.6971C63.7324 12.7918 62.6632 11.6618 60.5553 11.6618C59.5941 11.6618 58.5868 11.9041 57.7345 12.356L57.5174 13.9704C58.5868 13.3247 59.3154 13.0987 60.0903 13.0987C61.082 13.0987 61.6712 13.5831 61.6712 14.681V15.1814L59.5941 15.5366C57.8119 15.8432 56.9904 16.6666 56.9904 17.942C56.9904 19.2176 57.8894 20.1056 59.2068 20.1056M46.6995 19.944H49.7219C49.4118 19.3143 49.3343 17.8291 49.3343 16.8119V14.9715H53.612V16.8119C53.612 17.8291 53.519 19.3143 53.2091 19.944H56.2468C55.9367 19.3143 55.8437 17.8291 55.8437 16.8119V11.7746C55.8437 10.7577 55.9367 9.27217 56.2468 8.64254H53.2091C53.519 9.27243 53.612 10.7574 53.612 11.7746V13.3729H49.3343V11.7746C49.3343 10.7577 49.4118 9.27217 49.7219 8.64254H46.6995C46.9941 9.27243 47.1026 10.7574 47.1026 11.7746V16.8116C47.1026 17.8288 46.9941 19.3143 46.6995 19.944ZM40.0974 13.0663C40.9342 13.0663 41.5542 13.6801 41.7091 14.9715H38.5165C38.6714 13.7929 39.2294 13.0663 40.0974 13.0663ZM40.5313 20.1053C41.4614 20.1053 42.484 19.8148 43.1042 19.3628L43.29 17.8452C42.5462 18.3941 41.7091 18.6847 40.8878 18.6847C39.5548 18.6847 38.6714 17.8452 38.5009 16.2629H43.6776C43.7395 13.4056 42.2827 11.6618 40.0818 11.6618C37.8656 11.6618 36.3933 13.5346 36.3933 15.8914C36.3933 18.3617 38.0361 20.1053 40.5313 20.1053ZM27.9929 19.944H30.7363C30.4881 19.3789 30.4106 18.2164 30.4106 17.3287V14.0672C30.829 13.5504 31.3252 13.1791 31.9296 13.1791C32.627 13.1791 33.1693 13.6796 33.1693 14.6319V17.3284C33.1693 18.2162 33.0918 19.3787 32.8439 19.9437H35.6028C35.3394 19.3465 35.2463 18.2001 35.2463 17.2635V14.3419C35.2463 12.6629 34.301 11.6618 32.875 11.6618C31.8055 11.6618 30.9687 12.2753 30.4106 13.2116V8.22305L27.9462 8.61037C28.2719 9.20784 28.3338 10.3379 28.3338 11.2098V17.2638C28.3338 18.2003 28.2564 19.3462 27.9929 19.944ZM21.1889 19.944H24.2733C23.9632 19.3143 23.8546 17.8291 23.8546 16.8119V10.2087H24.3352C25.4047 10.2087 26.4275 10.3215 27.4195 10.8383L27.0786 8.64254H18.244L17.9033 10.8383C18.895 10.3215 19.9801 10.2084 21.0495 10.2084H21.6232V16.8116C21.6232 17.8288 21.5143 19.3143 21.1889 19.944ZM14.4447 18.9198L14.3606 18.4282C14.3185 17.9505 14.4308 17.501 14.6415 17.192C15.1473 16.4334 15.7654 15.9877 15.7654 14.34C15.7654 12.8792 14.6696 11.8397 13.3351 11.8397C13.03 11.8397 12.8207 11.8263 12.4642 11.6636L12.4604 11.6687C12.9842 12.2482 13.0118 13.3861 13.0118 13.5396H13.0016C12.6505 12.4436 11.9302 11.643 10.7501 11.0812C10.8063 11.6151 10.6434 12.3034 10.601 12.472H10.5957C10.5957 12.4578 10.5957 10.8986 9.42969 10.1964L9.10643 9.99936C8.86761 9.85891 8.81159 9.76081 8.72715 9.39546L8.31973 7.61138H7.3513L7.35023 7.60522L8.51621 7.09165C8.7553 6.99328 8.93783 6.86676 8.97992 6.67029C8.92363 6.71237 8.82553 6.76839 8.65693 6.76839C8.46019 6.76839 8.27765 6.69817 8.16534 6.52984H8.93783C9.06435 6.52984 9.16272 6.43147 9.16272 6.31889V6.02511C9.16272 5.99156 9.14939 5.95938 9.12567 5.93565C9.10194 5.91193 9.06976 5.8986 9.03621 5.8986H8.36423C8.35056 5.89856 8.33702 5.90123 8.32439 5.90644C8.31175 5.91166 8.30027 5.91932 8.29061 5.92898C8.28094 5.93864 8.27328 5.95012 8.26807 5.96276C8.26286 5.97539 8.26019 5.98893 8.26023 6.0026V6.01734C8.26023 6.04629 8.27926 6.08382 8.30258 6.10097L8.38245 6.15967C8.40021 6.17258 8.41342 6.1908 8.42016 6.2117C8.42691 6.23259 8.42685 6.25509 8.42 6.27595C8.41315 6.29681 8.39985 6.31496 8.38202 6.32778C8.3642 6.3406 8.34276 6.34744 8.3208 6.3473H7.94019V6.00421C7.94019 5.84982 8.0667 5.73751 8.20715 5.73751H8.93274V5.73107C8.80623 5.65897 8.58643 5.58848 8.58643 5.58848C8.7553 5.4759 8.88128 5.25128 8.92363 4.91408C8.92363 4.91408 8.4508 4.99718 8.44598 4.99852C8.33287 5.028 8.18437 5.04274 8.08493 5.17033L7.82761 4.89344L8.79497 4.63344C9.23456 4.51551 9.70711 4.32359 10.0526 4.10272C10.909 3.55619 11.3178 2.75179 11.4212 2.09241L11.1878 1.85573C11.0923 2.42398 10.8181 2.89627 10.433 3.28091C10.4753 3.14817 10.5018 3.01086 10.5118 2.87188C10.5171 2.79093 10.5179 2.71025 10.5153 2.62957C10.6715 2.35697 10.8254 1.87852 10.8219 1.49441L10.5678 1.25237C10.5807 1.48825 10.4984 1.78283 10.4016 1.94204C10.2419 1.34645 9.76367 0.58763 9.05041 0.0183105L8.86171 0.207012C9.11421 0.468084 9.54709 0.940104 9.72346 1.2907C9.12037 1.10683 8.48404 1.04169 8.03025 1.03848L7.75953 1.30893C8.63575 1.33841 9.52967 1.62843 9.9781 1.84769C10.0666 2.10019 10.1092 2.3752 10.1092 2.5765C10.1092 3.16726 9.92155 3.63043 9.26324 3.97192C9.39511 3.66823 9.45489 3.32594 9.47901 2.99491L9.23241 2.74804C9.22651 3.03324 8.98849 3.86015 8.6395 4.1826L8.04392 4.31662C8.37924 3.70468 8.64326 2.85633 8.69097 2.20714L8.44169 1.95759C8.40685 2.52074 7.93241 3.68404 7.44645 4.35656C7.36969 4.45757 7.28343 4.55101 7.18887 4.63559C7.18511 4.63291 7.95922 5.44775 7.95922 5.44775H7.54697C7.30814 5.44775 7.16769 5.46196 7.01303 5.6445L6.92887 5.74287C6.83049 5.88332 6.64474 5.9959 6.48392 5.9959C6.21722 5.9959 6.04915 5.76779 6.02959 5.63056H6.74606L6.88652 5.4759V5.44775C6.61177 5.44775 6.6032 5.15291 6.28262 5.15291C6.14216 5.15291 6.00171 5.2092 5.90334 5.3073V5.02639C6.02986 4.92802 6.26868 4.84386 6.60561 4.84386H7.01303L6.78814 4.6187C6.78814 4.6187 6.214 4.47155 6.16361 4.45815C6.17969 4.40775 6.33783 3.89901 6.33783 3.40474C6.33783 2.68157 6.11965 1.97126 5.80819 1.32394L5.58357 1.5499C5.70687 1.89299 5.89986 2.51351 5.89986 3.19487C5.89986 3.56959 5.82078 3.94056 5.68274 4.28848C5.12254 3.86845 4.45136 2.95497 4.37658 1.61691L4.11256 1.88066C4.13105 2.92468 4.60736 3.81672 4.84109 4.10942C4.5173 4.02419 3.60167 3.78643 3.24812 3.6953C3.06586 3.53957 2.71526 3.0461 2.59946 2.47544L2.36466 2.70971C2.3995 2.98526 2.52548 3.33532 2.62627 3.53742C2.51281 3.50837 2.40002 3.47673 2.288 3.44254C2.0322 3.20237 1.81463 2.92451 1.64282 2.61858L1.64551 2.61938C1.88862 1.60887 3.00555 0.885692 3.6853 0.742022L3.46148 0.518475C2.63753 0.734249 1.81062 1.27971 1.40159 2.06186C1.28794 1.71769 1.22629 1.35637 1.20136 0.994249C1.1834 0.71763 1.18367 0.438331 1.18635 0.16064L0.902227 0.444764C0.89767 0.5493 0.893381 0.6533 0.892309 0.758372C0.879979 1.96375 1.17429 2.64324 1.47235 3.12062C0.840845 2.84695 0.312804 2.25377 0.247938 1.50514L0 1.75307C0.0530722 2.53522 0.728536 3.14984 1.17322 3.40823C1.65489 3.68806 2.1832 3.86899 2.71847 4.00944C3.43468 4.21637 4.54598 4.53507 5.39755 4.7806V5.28612L5.39138 5.2872C5.31231 5.04918 5.04025 4.95536 4.82153 4.92802L3.81021 4.81544C3.88043 5.54612 4.35808 6.03771 5.1027 6.13608C4.79365 7.10532 4.44225 8.53827 4.44225 9.52144C4.44225 10.0554 4.54062 10.6314 4.63899 10.8984C4.75157 11.2214 4.77944 11.6006 4.70922 12.0223C4.66713 12.2608 4.5827 12.6682 4.52641 12.9776C4.45619 13.3708 4.41652 13.8508 4.59664 14.3542C5.07214 15.6818 5.63637 15.45 5.72054 16.2085L5.9875 18.5968L3.59926 18.3438L3.33229 19.9172H18.1389L18.167 19.3411L14.4447 18.9198ZM6.99936 16.2648L7.8 16.4897L7.05565 18.0068L6.99936 16.2648ZM9.00833 18.344L8.90996 18.9198L7.75792 18.7935L9.17693 16.9111L9.83711 17.1075C10.132 17.2059 10.5675 17.2904 11.0733 17.2904H11.4105C11.6491 18.0628 12.0286 18.2735 12.3095 18.6949L9.00833 18.3438V18.344Z" fill="#94A3B8"/>
</g>
</g>
<defs>
<clipPath id="clip0_63_9337">
<rect width="104" height="20.1397" fill="white"/>
</clipPath>
</defs>
</svg>
