<svg width="40" height="40" viewBox="0 0 40 40" fill="none" xmlns="http://www.w3.org/2000/svg">
<mask id="mask0_63_9344" style="mask-type:luminance" maskUnits="userSpaceOnUse" x="3" y="0" width="34" height="40">
<path d="M34.6802 32.6463H34.9548C35.0921 32.6463 35.2294 32.6806 35.2294 32.8519C35.2294 33.0576 35.0921 33.0576 34.9205 33.0576H34.6802V32.6463ZM34.4743 32.475V33.8116H34.6802V33.2289H34.9205L35.2637 33.8116H35.4696L35.0921 33.2289C35.298 33.1947 35.4353 33.0919 35.4353 32.8519C35.4353 32.5778 35.2637 32.475 34.9548 32.475H34.4743ZM8.14895 32.2008L7.66844 34.7369C7.59979 35.0796 7.53115 35.4909 7.49682 35.9364C7.4625 35.6623 7.4625 35.4223 7.42818 35.1824C7.39386 34.9425 7.35954 34.7369 7.32521 34.5655L6.91334 32.2008H4.47645L3.89297 39.1923H5.64341L5.95232 34.9768L6.63876 39.1923H8.2176L9.00701 34.9768L9.24727 39.1923H10.9291L10.4486 32.2008H8.14895ZM13.7092 35.7308L13.8465 34.874C13.8465 34.874 13.8465 34.8055 13.8808 34.7369C13.8808 34.6684 13.9151 34.5313 13.9151 34.3599C13.9151 34.2571 13.9494 34.1886 13.9494 34.0857C13.9494 34.0172 13.9838 33.9487 13.9838 33.8801L14.0524 34.5313C14.0524 34.6684 14.0867 34.7712 14.0867 34.874C14.0867 34.9768 14.0867 35.0454 14.1211 35.0796C14.1897 35.5252 14.224 35.7993 14.224 35.8679C14.224 35.9364 14.224 35.9707 14.2583 36.005L14.3956 36.8275H13.5033L13.7092 35.7308ZM12.8511 32.2008L11.1693 39.1923H13.1257L13.2973 38.3012H14.5329L14.6702 39.1923H16.6266L15.1507 32.2008H12.8511ZM18.7203 33.6745H18.7889C19.3381 33.6745 19.6126 33.9487 19.6126 34.4627C19.6126 34.7369 19.544 34.9425 19.4067 35.0796C19.2694 35.251 19.0978 35.3195 18.8576 35.3195H18.7203V33.6745ZM16.7982 32.2008V39.1923H18.6859V36.759V36.2791C18.7203 36.382 18.7546 36.4505 18.7546 36.5191C18.7889 36.5876 18.7889 36.6561 18.7889 36.6904L19.7156 39.1923H21.775L20.3677 36.2791C21.0885 35.9707 21.4661 35.3881 21.4661 34.5313C21.4661 33.743 21.1915 33.1261 20.6423 32.7149C20.2304 32.3721 19.5783 32.2008 18.7203 32.2008H16.7982ZM24.8297 32.2008L23.8 35.2167L23.8343 32.2008H21.9466V39.1923H23.8343L23.8 35.9707L25.0699 39.1923H27.0949L25.4131 35.5594L26.8547 32.1665H24.8297V32.2008ZM27.2665 32.2008V39.1923H30.7331V37.5815H29.0856V36.4505H30.5272V34.8055H29.0856V33.8458H30.7331V32.2351H27.2665V32.2008ZM31.145 32.2008V39.1923H34.4743V37.5815H32.9641V32.2008H31.145ZM33.9937 33.1261C33.9937 32.5778 34.4056 32.1665 34.9205 32.1665C35.4353 32.1665 35.8472 32.5778 35.8472 33.1261C35.8472 33.6745 35.4353 34.0857 34.9205 34.0857C34.4056 34.0857 33.9937 33.6745 33.9937 33.1261ZM33.7535 33.1261C33.7535 33.7773 34.2683 34.2571 34.9205 34.2571C35.5383 34.2571 36.0874 33.7773 36.0874 33.1261C36.0874 32.475 35.5726 31.9951 34.9205 31.9951C34.2683 31.9951 33.7535 32.475 33.7535 33.1261ZM3.92729 12.8714V30.1445H13.5376V9.06717L3.92729 12.8714ZM14.3956 8.72445V30.1102H24.0059V4.92026L14.3956 8.72445ZM24.864 4.61181V30.1102H34.4743V0.807617L24.864 4.61181Z" fill="white"/>
</mask>
<g mask="url(#mask0_63_9344)">
<path d="M-14.9844 23.3244L17.2101 -14.9917L54.9991 16.6756L22.8046 54.9917L-14.9844 23.3244Z" fill="#94A3B8"/>
</g>
</svg>
