<svg width="104" height="41" viewBox="0 0 104 41" fill="none" xmlns="http://www.w3.org/2000/svg">
<g clip-path="url(#clip0_63_9402)">
<mask id="mask0_63_9402" style="mask-type:luminance" maskUnits="userSpaceOnUse" x="0" y="0" width="104" height="41">
<path d="M104 0H0V41H104V0Z" fill="white"/>
</mask>
<g mask="url(#mask0_63_9402)">
<path d="M19.6596 31.1706C18.9331 32.0119 17.8984 33.2516 18.0965 34.2036C18.2947 34.9341 19.3514 35.4654 19.3514 35.4654L21.641 36.7273L20.188 37.9892L21.9492 38.5205C21.9492 38.5205 20.276 40.203 20.188 40.4023C19.7697 40.513 19.2413 40.513 18.735 40.513C14.9924 40.513 9.79679 38.3213 8.54192 38.3213C6.97884 38.3213 4.99747 39.1625 4.99747 39.1625L6.03219 38.0113C6.03219 38.0113 4.68926 38.3213 3.43439 38.2106L5.19561 36.9487C3.63252 36.9487 2.17952 36.4174 1.5631 35.9082C1.5631 35.9082 4.4691 35.709 8.54192 35.709C10.2151 35.709 12.9009 35.9082 12.9009 35.9082C11.558 35.2883 10.3031 34.5578 9.77478 33.1852L12.3726 33.6058C11.3379 32.986 9.6647 31.3035 9.46656 29.953L12.3726 30.9935C11.8442 30.4622 10.083 28.8018 9.77478 26.8094L12.0644 28.2705C11.4479 27.6507 9.88485 24.507 10.083 23.5551L12.1524 25.0162C11.1177 23.7543 9.97291 20.4114 10.8095 19.061C11.4259 21.5626 12.8789 22.5146 12.8789 22.5146C11.9323 21.1641 9.86284 16.2495 11.8442 14.1463C12.3726 18.9503 14.442 20.6328 14.442 20.6328C12.7688 17.9098 10.8095 9.54158 14.442 7.88121C13.7155 13.2165 15.4767 16.1388 15.4767 16.1388C14.442 11.2241 14.442 4.20626 18.0745 3.58639C16.3133 8.81102 17.5462 12.8844 17.5462 12.8844C16.9297 0.553456 20.8705 0.7527 20.8705 0.7527C20.8705 0.7527 20.254 4.20626 20.254 10.4714V28.4698C20.276 29.7981 20.166 30.5508 19.6596 31.1706ZM22.0373 35.554C23.6003 35.6647 24.7451 35.7532 25.8899 35.9746C26.3082 36.0853 26.5064 36.5059 26.5064 36.8159C25.978 36.7052 25.1634 36.6166 25.1634 36.6166V37.148C25.1634 37.148 25.8899 36.9487 26.7265 36.9487C26.7265 36.9487 28.3997 36.9487 28.2896 38.0999C27.8713 37.79 26.9467 37.9007 26.6164 37.9892C25.7799 38.0999 24.9433 38.5205 24.1287 39.0297C23.2921 39.4503 22.3675 39.9816 21.3108 40.2916C21.7291 39.871 22.9839 38.5205 22.9839 38.5205L21.3108 37.6793L22.6537 36.5281L20.5843 35.3769C21.1126 35.4654 21.5309 35.4654 22.0373 35.554ZM22.1473 33.6722H29.5224V9.29806H22.7638V24.4627L20.7824 22.581V10.4492C20.7824 3.34287 21.619 0 21.619 0C19.3294 0 18.1846 2.19168 17.8764 2.83369C16.6215 2.94438 15.5868 3.67495 14.9704 5.13607C14.5521 5.97732 14.3539 6.70788 14.3539 7.12851C11.6461 7.74838 11.4479 12.5745 11.6461 13.3936L7.48519 9.3202H6.69435e-06V33.6944H6.75869V18.9503L9.97292 22.094C10.2811 22.9352 10.5893 23.3558 10.5893 23.3558L9.33447 22.2046C9.13634 24.6177 9.75276 25.8575 10.3692 26.6987L8.8061 25.3483C8.69603 27.7613 9.84082 29.2225 10.5673 29.8423L8.49789 28.8018C8.38782 30.263 9.75276 32.2554 10.5673 32.676L8.8061 32.4768C9.22439 34.4692 10.5673 35.0891 10.5673 35.0891C10.5673 35.0891 7.55124 35.1998 6.20831 35.1998C2.46572 35.1998 -0.0220032 35.5097 -0.0220032 35.5097C-0.0220032 35.5097 1.65116 37.1922 3.83066 37.2808L1.95937 38.432C3.3023 38.9633 4.55716 38.7419 4.55716 38.7419L3.41237 40.0923C3.41237 40.0923 6.84675 38.7419 8.29976 38.8305C9.44455 38.9411 14.8603 41.0221 18.4928 41.0221C20.9805 41.0221 22.7638 40.0702 24.1067 39.3396C24.9433 38.919 25.7799 38.4984 26.5064 38.3877C27.8493 38.1884 28.3777 38.6976 28.3777 38.6976C28.4877 38.1663 28.906 36.7052 26.8146 36.3952C26.7045 35.9746 26.3963 35.554 25.7799 35.4433C24.6351 35.2441 19.7477 34.912 19.6376 34.912C19.2193 34.912 17.8764 34.6021 19.1092 32.7203C19.2193 32.6096 19.8357 31.7684 19.8357 31.7684L22.1473 33.6722Z" fill="#94A3B8"/>
</g>
<path d="M59.287 17.777C59.8154 17.777 60.3218 18.1976 60.3218 18.7289C60.3218 19.2602 59.7934 19.6809 59.287 19.6809C58.7587 19.6809 58.2523 19.2602 58.2523 18.7289C58.2523 18.1976 58.6486 17.777 59.287 17.777Z" fill="#94A3B8"/>
<path d="M85.7054 17.777C86.2337 17.777 86.7401 18.1976 86.7401 18.7289C86.7401 19.2602 86.2117 19.6809 85.7054 19.6809C85.199 19.6809 84.6707 19.2602 84.6707 18.7289C84.6707 18.1976 85.0669 17.777 85.7054 17.777Z" fill="#94A3B8"/>
<path d="M52.1101 22.9131V26.5659H50.547V25.946C50.1287 26.3666 49.6003 26.6766 48.7858 26.6766C47.5309 26.6766 46.4962 25.946 46.4962 24.7948C46.4962 23.0238 48.3675 22.6031 50.2388 22.6031H50.4369C50.4369 22.0718 50.2388 21.6512 49.2921 21.6512C48.6757 21.6512 48.0373 21.8504 47.619 22.2711L46.6723 21.3191C47.2887 20.6993 48.2354 20.2786 49.2701 20.2786C50.3048 20.2786 50.8332 20.3893 51.4496 20.8985C52 21.5405 52.1101 22.3818 52.1101 22.9131ZM50.4369 23.9536H50.3268C50.0186 23.9536 49.3802 23.9536 48.8738 24.1528C48.5656 24.2635 48.2574 24.4627 48.2574 24.7727C48.2574 25.1933 48.6757 25.3926 49.094 25.3926C49.9306 25.3926 50.4369 24.8612 50.4369 24.1307V23.9536Z" fill="#94A3B8"/>
<path d="M55.6325 20.5V18.6182H53.8713V20.5H52.7265V21.9611H53.8713V24.5734C53.8713 25.4147 53.9814 25.9238 54.3997 26.3445C54.7079 26.6544 55.2362 26.8758 55.9627 26.8758C56.381 26.8758 56.9094 26.7651 57.2176 26.6765V25.1047C57.0195 25.2154 56.6892 25.2154 56.271 25.2154C55.7426 25.2154 55.6545 24.9055 55.6545 24.3742V21.9611H57.2176V20.5H55.6325Z" fill="#94A3B8"/>
<path d="M101.292 23.6436V24.0643H96.823C96.823 24.6841 97.5496 25.2155 98.3861 25.2155C99.1126 25.2155 99.5309 24.9055 99.9492 24.4849L101.094 25.3261C100.478 26.1674 99.641 26.6766 98.3861 26.6766C96.5148 26.6766 95.0618 25.5254 95.0618 23.4444C95.0618 21.7619 96.0965 20.2122 98.188 20.2122C100.478 20.3893 101.292 22.0718 101.292 23.6436ZM99.4208 22.9131C99.3108 22.2932 99.0026 21.7619 98.0779 21.7619C97.3514 21.7619 96.823 22.2932 96.735 22.9131H99.4208Z" fill="#94A3B8"/>
<path d="M43.5682 17.777V23.7322L39.8256 17.777H37.536V26.5659H39.4073V20.3893L43.2599 26.5659H45.4395V17.777H43.5682Z" fill="#94A3B8"/>
<path d="M82.381 20.5L81.3243 24.2635L80.3997 20.5H78.6164L77.6918 24.2635L76.6571 20.5H74.7858L76.6571 26.5659H78.4183L79.453 22.8024L80.5978 26.5659H82.2709L84.2523 20.5H82.381Z" fill="#94A3B8"/>
<path d="M60.1016 20.5H58.3404V26.5659H60.1016V20.5Z" fill="#94A3B8"/>
<path d="M86.5199 20.5H84.7587V26.5659H86.5199V20.5Z" fill="#94A3B8"/>
<path d="M73.641 20.9206C73.2227 20.5 72.8044 20.3893 72.188 20.3893C71.5716 20.3893 70.735 20.6992 70.4268 21.2305V20.6107H68.7536V26.6765H70.5148V23.3337C70.5148 22.913 70.6249 22.6031 70.823 22.3817C71.0212 22.1825 71.2413 22.0718 71.5495 22.0718C71.9678 22.0718 72.166 22.1825 72.276 22.3817C72.4742 22.581 72.4742 23.0016 72.4742 23.6436V26.7872H74.2354V23.0237C74.2574 22.0718 74.1473 21.4519 73.641 20.9206Z" fill="#94A3B8"/>
<path d="M94.1152 17.777V26.6765H92.442V26.0567C92.0237 26.4773 91.4073 26.8979 90.5707 26.8979C89.7341 26.8979 89.0076 26.588 88.5013 26.0567C87.8849 25.4368 87.5546 24.5956 87.5546 23.6436C87.5546 21.7619 88.8095 20.4114 90.4606 20.4114C91.1871 20.4114 91.8036 20.6107 92.3319 21.142V17.7991H94.1152V17.777ZM92.3539 23.5329C92.3539 22.6917 91.8256 21.8504 90.7909 21.8504C89.7562 21.8504 89.2278 22.6917 89.2278 23.5329C89.2278 24.3742 89.7562 25.2154 90.7909 25.2154C91.8256 25.2154 92.3539 24.3742 92.3539 23.5329Z" fill="#94A3B8"/>
<path d="M67.6969 23.533C67.6969 25.4147 66.354 26.7651 64.3726 26.7651C62.5013 26.7651 61.0483 25.4147 61.0483 23.533C61.0483 21.6512 62.3912 20.3008 64.3726 20.3008C66.354 20.3893 67.6969 21.6512 67.6969 23.533ZM64.3726 21.8505C63.3379 21.8505 62.8095 22.6917 62.8095 23.533C62.8095 24.3742 63.3379 25.2155 64.3726 25.2155C65.4073 25.2155 65.9357 24.3742 65.9357 23.533C65.9357 22.6917 65.4073 21.8505 64.3726 21.8505Z" fill="#94A3B8"/>
<path d="M102.129 19.8801H102.437V19.2603H102.635L102.943 19.8801H103.251L102.833 19.2603C103.031 19.2603 103.251 19.061 103.251 18.8396C103.251 18.5297 103.053 18.3083 102.723 18.3083H102.107L102.129 19.8801ZM102.349 18.6183H102.547C102.745 18.6183 102.965 18.6183 102.965 18.8175C102.965 19.0167 102.767 19.0167 102.547 19.0167H102.349V18.6183ZM101.204 19.1496C101.204 19.8801 101.82 20.5 102.547 20.5C103.273 20.5 103.89 19.8801 103.89 19.1496C103.89 18.419 103.273 17.7991 102.547 17.7991C101.82 17.777 101.204 18.419 101.204 19.1496ZM101.512 19.1496C101.512 18.5297 102.041 17.9984 102.657 17.9984C103.273 17.9984 103.802 18.5297 103.802 19.1496C103.802 19.7694 103.273 20.3008 102.657 20.3008C102.041 20.3008 101.512 19.7694 101.512 19.1496Z" fill="#94A3B8"/>
<path d="M19.6596 31.1706C18.9331 32.0119 17.8984 33.2516 18.0965 34.2036C18.2947 34.9341 19.3514 35.4654 19.3514 35.4654L21.641 36.7273L20.188 37.9892L21.9492 38.5205C21.9492 38.5205 20.276 40.203 20.188 40.4023C19.7697 40.513 19.2413 40.513 18.735 40.513C14.9924 40.513 9.79678 38.3213 8.54191 38.3213C6.97883 38.3213 4.99745 39.1625 4.99745 39.1625L6.03217 38.0113C6.03217 38.0113 4.68924 38.3213 3.43438 38.2106L5.19559 36.9487C3.63251 36.9487 2.17951 36.4174 1.56308 35.9082C1.56308 35.9082 4.46909 35.709 8.54191 35.709C10.2151 35.709 12.9009 35.9082 12.9009 35.9082C11.558 35.2883 10.3031 34.5578 9.77476 33.1852L12.3726 33.6058C11.3378 32.986 9.66468 31.3035 9.46654 29.953L12.3726 30.9935C11.8442 30.4622 10.083 28.8018 9.77476 26.8094L12.0643 28.2705C11.4479 27.6506 9.88484 24.507 10.083 23.5551L12.1524 25.0162C11.1177 23.7543 9.9729 20.4114 10.8095 19.061C11.4259 21.5626 12.8789 22.5146 12.8789 22.5146C11.9323 21.1641 9.86282 16.2495 11.8442 14.1463C12.3726 18.9503 14.442 20.6328 14.442 20.6328C12.7688 17.9098 10.8095 9.54157 14.442 7.88121C13.7155 13.2165 15.4767 16.1388 15.4767 16.1388C14.442 11.2241 14.442 4.20626 18.0745 3.58639C16.3133 8.81101 17.5461 12.8844 17.5461 12.8844C16.9297 0.553453 20.8704 0.752698 20.8704 0.752698C20.8704 0.752698 20.254 4.20626 20.254 10.4714V28.4698C20.276 29.7981 20.166 30.5508 19.6596 31.1706ZM22.0372 35.554C23.6003 35.6647 24.7451 35.7532 25.8899 35.9746C26.3082 36.0853 26.5063 36.5059 26.5063 36.8159C25.978 36.7052 25.1634 36.6166 25.1634 36.6166V37.1479C25.1634 37.1479 25.8899 36.9487 26.7265 36.9487C26.7265 36.9487 28.3997 36.9487 28.2896 38.0999C27.8713 37.79 26.9467 37.9006 26.6164 37.9892C25.7798 38.0999 24.9433 38.5205 24.1287 39.0297C23.2921 39.4503 22.3675 39.9816 21.3107 40.2916C21.729 39.8709 22.9839 38.5205 22.9839 38.5205L21.3107 37.6793L22.6537 36.5281L20.5842 35.3769C21.1126 35.4654 21.5309 35.4654 22.0372 35.554Z" fill="#020617"/>
</g>
<defs>
<clipPath id="clip0_63_9402">
<rect width="104" height="41" fill="white"/>
</clipPath>
</defs>
</svg>
