<svg width="101" height="28" viewBox="0 0 101 28" fill="none" xmlns="http://www.w3.org/2000/svg">
<g clip-path="url(#clip0_37_8296)">
<path d="M35.1271 23.6008C33.8431 23.6008 32.6851 23.3762 31.653 22.927C30.6291 22.4778 29.784 21.8368 29.1176 21.0038C28.4594 20.1626 28.0408 19.1663 27.8621 18.0148L30.9095 17.5493C31.1695 18.5946 31.7018 19.4031 32.5063 19.9748C33.319 20.5464 34.2535 20.8323 35.3099 20.8323C35.9357 20.8323 36.5248 20.7343 37.0774 20.5383C37.63 20.3423 38.077 20.0564 38.4183 19.6808C38.7677 19.3051 38.9425 18.8437 38.9425 18.2965C38.9425 18.0515 38.9018 17.8269 38.8206 17.6228C38.7393 17.4104 38.6174 17.2226 38.4549 17.0593C38.3005 16.8959 38.0973 16.7489 37.8454 16.6183C37.6016 16.4794 37.3172 16.361 36.9921 16.263L32.4576 14.9155C32.0675 14.8012 31.6449 14.6501 31.1898 14.4623C30.7429 14.2663 30.3162 14.0008 29.9099 13.666C29.5117 13.323 29.1826 12.8902 28.9226 12.3675C28.6706 11.8367 28.5447 11.1833 28.5447 10.4075C28.5447 9.27234 28.8291 8.32092 29.398 7.55325C29.9749 6.77742 30.7469 6.19759 31.714 5.81376C32.6892 5.42992 33.77 5.24209 34.9564 5.25025C36.1592 5.25842 37.2318 5.46667 38.1745 5.87501C39.1172 6.27517 39.9054 6.85909 40.5393 7.62675C41.1732 8.39442 41.6201 9.32134 41.8802 10.4075L38.723 10.9588C38.593 10.3381 38.3411 9.81134 37.9673 9.3785C37.6016 8.9375 37.1506 8.60267 36.6142 8.374C36.086 8.14534 35.5212 8.02284 34.9199 8.00651C34.3348 7.99834 33.7903 8.08817 33.2865 8.276C32.7907 8.45567 32.3885 8.71701 32.0797 9.06C31.779 9.40301 31.6287 9.80317 31.6287 10.2605C31.6287 10.6933 31.7587 11.0486 32.0187 11.3263C32.2788 11.5958 32.5998 11.8122 32.9817 11.9755C33.3718 12.1307 33.7659 12.2613 34.1641 12.3675L37.309 13.2495C37.7397 13.3638 38.2233 13.519 38.7596 13.715C39.296 13.911 39.812 14.1846 40.3077 14.5358C40.8034 14.8869 41.2097 15.3483 41.5267 15.92C41.8517 16.4917 42.0143 17.2185 42.0143 18.1005C42.0143 19.0152 41.8233 19.8196 41.4413 20.5138C41.0675 21.1998 40.5596 21.7714 39.9176 22.2288C39.2756 22.6861 38.5402 23.0291 37.7113 23.2578C36.8905 23.4864 36.0291 23.6008 35.1271 23.6008Z" fill="#334155"/>
<path d="M48.6144 23.613C47.6392 23.613 46.8347 23.4497 46.2008 23.123C45.567 22.7963 45.0631 22.3798 44.6893 21.8735C44.3155 21.3672 44.0392 20.8282 43.8604 20.2565C43.6816 19.6848 43.5638 19.1458 43.5069 18.6395C43.4582 18.125 43.4338 17.7085 43.4338 17.39V10.0033H46.408V16.3733C46.408 16.7816 46.4365 17.243 46.4934 17.7575C46.5503 18.2638 46.6803 18.7538 46.8834 19.2275C47.0947 19.693 47.4035 20.0768 47.8099 20.379C48.2243 20.6812 48.781 20.8323 49.4798 20.8323C49.8537 20.8323 50.2234 20.771 50.5891 20.6485C50.9548 20.526 51.2839 20.3178 51.5765 20.0238C51.8771 19.7216 52.1169 19.3092 52.2957 18.7865C52.4744 18.2638 52.5638 17.6023 52.5638 16.802L54.3069 17.5493C54.3069 18.6763 54.0875 19.6971 53.6487 20.6118C53.218 21.5264 52.5801 22.2573 51.7349 22.8045C50.8898 23.3435 49.8496 23.613 48.6144 23.613ZM52.9173 23.2333V19.1295H52.5638V10.0033H55.5137V23.2333H52.9173Z" fill="#334155"/>
<path d="M57.9633 23.2333V10.0033H60.5597V13.225L60.2427 12.8085C60.4053 12.3675 60.6206 11.9673 60.8888 11.608C61.1651 11.2405 61.4942 10.9383 61.8761 10.7015C62.2012 10.481 62.5588 10.3095 62.9488 10.187C63.347 10.0563 63.7534 9.97875 64.1678 9.95425C64.5823 9.92159 64.9845 9.93792 65.3746 10.0033V12.7595C64.9845 12.6452 64.5335 12.6084 64.0215 12.6493C63.5177 12.6901 63.0626 12.833 62.6563 13.078C62.25 13.2985 61.9168 13.5803 61.6567 13.9233C61.4048 14.2663 61.2179 14.6583 61.096 15.0993C60.9741 15.5321 60.9132 16.0017 60.9132 16.508V23.2333H57.9633Z" fill="#334155"/>
<path d="M72.4726 23.6008C71.1398 23.6008 69.9696 23.3108 68.962 22.731C67.9543 22.1512 67.166 21.3468 66.5972 20.3178C66.0364 19.2888 65.7561 18.1046 65.7561 16.7653C65.7561 15.3198 66.0324 14.0662 66.585 13.0045C67.1376 11.9347 67.9055 11.1058 68.8888 10.5178C69.8721 9.92975 71.0098 9.63576 72.3019 9.63576C73.6672 9.63576 74.8252 9.95834 75.776 10.6035C76.7349 11.2405 77.446 12.1429 77.9092 13.3108C78.3724 14.4786 78.5471 15.8547 78.4333 17.439H75.52V16.361C75.5119 14.9237 75.2599 13.8743 74.7642 13.2128C74.2685 12.5513 73.4884 12.2205 72.4238 12.2205C71.2211 12.2205 70.3272 12.5962 69.7421 13.3475C69.157 14.0907 68.8644 15.1809 68.8644 16.6183C68.8644 17.9576 69.157 18.9948 69.7421 19.7298C70.3272 20.4648 71.1805 20.8323 72.3019 20.8323C73.0252 20.8323 73.6469 20.673 74.1669 20.3545C74.6952 20.0278 75.1015 19.5583 75.3859 18.9458L78.287 19.8278C77.7832 21.0201 77.0031 21.947 75.9466 22.6085C74.8983 23.27 73.7403 23.6008 72.4726 23.6008ZM67.938 17.439V15.2095H76.9949V17.439H67.938Z" fill="#334155"/>
<path d="M85.4561 23.6008C84.2452 23.6008 83.1888 23.2945 82.2868 22.682C81.3847 22.0695 80.6859 21.2365 80.1902 20.183C79.6944 19.1295 79.4466 17.9413 79.4466 16.6183C79.4466 15.2789 79.6944 14.0866 80.1902 13.0413C80.694 11.9878 81.4051 11.1588 82.3233 10.5545C83.2416 9.942 84.3225 9.63576 85.5658 9.63576C86.8173 9.63576 87.8656 9.942 88.7107 10.5545C89.564 11.1588 90.2101 11.9878 90.6489 13.0413C91.0877 14.0948 91.3071 15.2871 91.3071 16.6183C91.3071 17.9331 91.0877 19.1213 90.6489 20.183C90.2101 21.2365 89.5559 22.0695 88.6864 22.682C87.8168 23.2945 86.7401 23.6008 85.4561 23.6008ZM85.9071 20.9548C86.6954 20.9548 87.3292 20.7751 87.8087 20.4158C88.2963 20.0483 88.6498 19.5378 88.8692 18.8845C89.0967 18.2312 89.2105 17.4758 89.2105 16.6183C89.2105 15.7526 89.0967 14.9972 88.8692 14.352C88.6498 13.6987 88.3044 13.1923 87.8331 12.833C87.3617 12.4655 86.7523 12.2818 86.0046 12.2818C85.2164 12.2818 84.5662 12.4778 84.0543 12.8698C83.5423 13.2536 83.1644 13.7763 82.9206 14.4378C82.6768 15.0911 82.555 15.8179 82.555 16.6183C82.555 17.4268 82.6728 18.1618 82.9085 18.8233C83.1522 19.4766 83.522 19.9952 84.0177 20.379C84.5134 20.7628 85.1432 20.9548 85.9071 20.9548ZM89.2105 23.2333V13.9478H88.8448V5.59325H91.8069V23.2333H89.2105Z" fill="#334155"/>
<path d="M98.3883 7.875C99.8301 7.875 101 6.6997 101 5.25C101 3.80024 99.8301 2.625 98.3883 2.625C96.9457 2.625 95.7759 3.80024 95.7759 5.25C95.7759 6.6997 96.9457 7.875 98.3883 7.875Z" fill="#334155"/>
<path d="M9.02627 16.2506C8.08225 15.2903 7.5553 13.9958 7.56002 12.6486C7.56475 11.3014 8.10079 10.0106 9.05151 9.05683C9.5237 8.58157 10.0853 8.20478 10.7039 7.94816C11.3226 7.69154 11.9859 7.56024 12.6555 7.5618C13.9989 7.55859 15.2888 8.08911 16.2415 9.03697C16.2486 9.04313 16.2552 9.04975 16.2613 9.05683C17.9248 10.7244 18.859 12.9845 18.859 15.3408C18.859 17.6972 17.9248 19.9572 16.2613 21.6248C14.5948 23.2886 12.337 24.223 9.98316 24.223C7.62922 24.223 5.37134 23.2886 3.70489 21.6248L3.67788 21.596C2.50776 20.4236 1.58052 19.0315 0.949365 17.4996C0.318209 15.9677 -0.00435885 14.3261 5.31852e-05 12.6691C-0.00478339 11.0052 0.320299 9.35676 0.956576 7.81944C1.59285 6.28211 2.52765 4.88648 3.70675 3.71335C4.88006 2.53195 6.27602 1.59549 7.81369 0.958032C9.35135 0.320668 11.0001 -0.00499723 12.6645 5.79614e-05C14.3233 -0.00453994 15.9666 0.319473 17.4997 0.953342C19.0327 1.58721 20.4252 2.51853 21.597 3.69349L19.7229 5.5654C17.843 3.6979 15.3006 2.65139 12.6517 2.6547C10.0029 2.6581 7.46318 3.71115 5.58803 5.58342C4.65513 6.51133 3.91547 7.61523 3.41189 8.8312C2.90831 10.0471 2.65088 11.351 2.6544 12.6672C2.6511 13.9766 2.90595 15.2738 3.40441 16.4844C3.90288 17.695 4.63508 18.7953 5.55916 19.7222C5.56532 19.7293 5.572 19.7359 5.57905 19.7421H5.58803C6.75707 20.9105 8.34175 21.5668 9.994 21.5668C11.6462 21.5668 13.2308 20.9105 14.3998 19.7421C15.5665 18.5716 16.2216 16.9859 16.2216 15.3327C16.2216 13.6795 15.5665 12.0938 14.3998 10.9234L14.3818 10.9071C13.9255 10.4573 13.3104 10.2059 12.6699 10.2074C12.3473 10.2068 12.0279 10.2702 11.7299 10.3941C11.4321 10.5179 11.1617 10.6996 10.9345 10.9287C10.4789 11.3853 10.221 12.0028 10.2166 12.648C10.2123 13.2932 10.4617 13.9143 10.9112 14.3769L10.9345 14.4022C11.1827 14.6507 11.322 14.9877 11.322 15.339C11.322 15.6904 11.1827 16.0274 10.9345 16.2759C10.6862 16.5242 10.3496 16.6637 9.99841 16.6637C9.64737 16.6637 9.31056 16.5242 9.06225 16.2759L9.03709 16.2506" fill="url(#paint0_linear_37_8296)"/>
<path d="M13.563 11.7097L13.5847 11.7296C14.5381 12.6875 15.0734 13.9844 15.0734 15.3364C15.0734 16.6884 14.5381 17.9853 13.5847 18.9432C12.6276 19.8973 11.3316 20.4331 9.98068 20.4331C8.62972 20.4331 7.33381 19.8973 6.37667 18.9432L6.34966 18.9162C5.53154 18.0943 4.88336 17.119 4.44241 16.0461C4.00148 14.9732 3.77638 13.8238 3.77995 12.6637C3.77645 11.4963 4.00451 10.3399 4.45087 9.26132C4.89722 8.1828 5.55303 7.20368 6.38028 6.38068C7.20476 5.55511 8.18418 4.90082 9.26223 4.45544C10.3403 4.01006 11.4958 3.7824 12.662 3.78553C15.0066 3.78158 17.2569 4.70912 18.9187 6.36441L18.9313 6.377C20.1104 7.55022 21.0451 8.94586 21.6814 10.4832C22.3177 12.0204 22.6427 13.6688 22.6379 15.3328C22.6426 16.9969 22.3174 18.6456 21.6811 20.1831C21.0449 21.7207 20.1102 23.1167 18.9313 24.2903C17.7588 25.4701 16.3642 26.4054 14.8281 27.0422C13.2921 27.679 11.6451 28.0045 9.98243 28C8.31954 28.0046 6.67222 27.6792 5.13586 27.0424C3.59949 26.4057 2.20459 25.4702 1.03189 24.2903L1.00127 24.2579L2.87359 22.3877C2.88465 22.3964 2.89488 22.4061 2.9042 22.4166C3.83169 23.3495 4.93485 24.089 6.14983 24.5923C7.36482 25.0957 8.66746 25.3528 9.98243 25.3489C11.2971 25.3527 12.5994 25.0955 13.8142 24.5921C15.0288 24.0888 16.1317 23.3493 17.0589 22.4166C17.9913 21.4885 18.7305 20.3845 19.2338 19.1686C19.7371 17.9526 19.9943 16.6489 19.9907 15.3328C19.9947 14.0182 19.7381 12.7159 19.2357 11.5012C18.7334 10.2865 17.9954 9.18353 17.0644 8.25618C17.0582 8.2491 17.0515 8.24248 17.0445 8.23632C15.8732 7.07726 14.2913 6.42895 12.6441 6.43309C10.9969 6.43713 9.41805 7.09316 8.25249 8.25802C7.672 8.83561 7.21178 9.52281 6.89843 10.2797C6.5851 11.0365 6.42489 11.8481 6.42709 12.6673C6.42496 13.4808 6.583 14.2866 6.89219 15.0388C7.20139 15.7911 7.65568 16.475 8.22909 17.0515L8.2561 17.0767C8.71684 17.5364 9.34097 17.7945 9.99152 17.7945C10.6421 17.7945 11.2661 17.5364 11.7268 17.0767C12.1856 16.6154 12.4433 15.991 12.4433 15.34C12.4433 14.689 12.1856 14.0646 11.7268 13.6033L11.7016 13.5799C11.4641 13.3291 11.3336 12.9955 11.338 12.65C11.3423 12.3044 11.4812 11.9743 11.725 11.7296C11.9748 11.4838 12.3117 11.3471 12.662 11.349C13.0015 11.3476 13.3285 11.4767 13.5756 11.7097" fill="url(#paint1_linear_37_8296)"/>
</g>
<defs>
<linearGradient id="paint0_linear_37_8296" x1="-0.00035254" y1="27.9998" x2="27.3788" y2="5.86379" gradientUnits="userSpaceOnUse">
<stop stop-color="#3730A3"/>
<stop offset="1" stop-color="#4F46E5"/>
</linearGradient>
<linearGradient id="paint1_linear_37_8296" x1="-0.00035254" y1="27.9998" x2="27.3788" y2="5.86379" gradientUnits="userSpaceOnUse">
<stop stop-color="#3730A3"/>
<stop offset="1" stop-color="#4F46E5"/>
</linearGradient>
<clipPath id="clip0_37_8296">
<rect width="101" height="28" fill="#334155"/>
</clipPath>
</defs>
</svg>
