<svg width="40" height="40" viewBox="0 0 40 40" fill="none" xmlns="http://www.w3.org/2000/svg">
<g clip-path="url(#clip0_63_9397)">
<path d="M19.279 4.38331C21.8506 4.24204 24.5434 4.74158 26.9531 5.64148C28.2215 6.11518 29.4069 6.79644 30.5478 7.51561C33.0823 9.11311 35.104 11.3994 36.6643 13.9374C36.9863 14.4603 37.4517 15.277 37.6413 15.8752C37.667 15.9558 37.666 15.9994 37.6257 16.061C37.431 16.0891 37.1297 15.8331 36.9293 15.7431C36.3133 15.4666 35.5983 15.191 34.9343 15.0572C32.7363 14.6145 30.3263 14.6518 28.1896 15.3658C27.6471 15.547 26.5433 16.1481 26.0545 16.4693C24.214 15.3389 23.0556 14.9339 20.8584 14.7884C19.3718 14.6417 16.9843 14.9408 15.6282 15.5498C15.1759 15.7529 14.4055 16.1999 13.9435 16.4567C13.4085 16.022 11.9147 15.3491 11.2651 15.1878C8.67042 14.5437 5.61949 14.5704 3.16635 15.7192C2.96972 15.8113 2.62219 16.0888 2.42155 16.0619L2.39944 16.0017C2.41357 15.7519 2.66041 15.2953 2.78037 15.0541C3.55055 13.4805 4.54019 12.0241 5.71962 10.7286C8.59095 7.54877 12.436 5.41124 16.6523 4.65078C17.6052 4.48224 18.3148 4.43448 19.279 4.38331Z" fill="#94A3B8"/>
<path d="M19.4938 16.0481C19.922 16.0167 20.6122 16.0316 21.0312 16.1074L21.0334 25.4106C21.0336 27.5371 21.0363 29.6659 21.0328 31.7924C21.0325 32.0103 21.0016 32.4613 20.948 32.6678C20.8022 33.2295 20.3206 34.1046 19.8945 34.4936C19.2122 35.1166 18.2895 35.455 17.3692 35.426C16.4658 35.3976 15.6018 35.066 14.9783 34.41C14.5908 33.9836 14.0224 33.2161 14.0361 32.6438C14.0528 31.9476 14.9737 31.5247 15.5442 31.9083C16.0047 32.218 15.9961 32.6177 16.3325 33.0027C16.5878 33.2949 17.0307 33.4523 17.4047 33.463C17.845 33.4783 18.2721 33.311 18.5846 33.0004C18.8308 32.7623 18.9912 32.4495 19.041 32.1107C19.0857 31.7884 19.0642 30.8671 19.064 30.5092L19.0626 27.3244L19.0666 16.0752L19.4938 16.0481Z" fill="#94A3B8"/>
</g>
<defs>
<clipPath id="clip0_63_9397">
<rect width="40" height="40" fill="white"/>
</clipPath>
</defs>
</svg>
